<svg width="1447" height="78" viewBox="0 0 1447 78" fill="none" xmlns="http://www.w3.org/2000/svg">
<g filter="url(#filter0_d)">
<path d="M711.96 17.86H708.12V53.62C708.12 54.66 708.48 55.56 709.2 56.32C709.96 57.04 710.88 57.4 711.96 57.4H712.68L712.74 58H699.6V57.4H700.38C701.42 57.4 702.3 57.04 703.02 56.32C703.78 55.6 704.18 54.72 704.22 53.68V20.38C704.18 19.34 703.78 18.46 703.02 17.74C702.3 16.98 701.42 16.6 700.38 16.6H699.6V16H715.8C719.44 16 722.3 17.02 724.38 19.06C726.46 21.06 727.5 23.68 727.5 26.92C727.5 30.12 726.5 32.9 724.5 35.26C722.54 37.58 720.14 38.74 717.3 38.74C717.9 39.02 718.6 39.58 719.4 40.42C720.24 41.22 720.98 42.06 721.62 42.94C725.06 47.86 727.3 50.9 728.34 52.06C729.38 53.18 730.12 53.96 730.56 54.4C731 54.8 731.48 55.2 732 55.6C732.52 56 733.04 56.32 733.56 56.56C734.72 57.12 735.96 57.4 737.28 57.4V58H733.98C732.26 58 730.66 57.7 729.18 57.1C727.7 56.46 726.58 55.82 725.82 55.18C725.1 54.5 724.46 53.86 723.9 53.26C723.38 52.62 721.9 50.54 719.46 47.02C717.02 43.5 715.6 41.5 715.2 41.02C714.8 40.5 714.38 40 713.94 39.52C712.66 38.16 711.38 37.48 710.1 37.48V36.88C710.42 36.92 710.84 36.94 711.36 36.94C711.88 36.94 712.52 36.92 713.28 36.88C718.24 36.76 721.36 34.68 722.64 30.64C722.88 29.84 723 29.1 723 28.42C723 27.7 723 27.24 723 27.04C722.92 24.36 722.22 22.2 720.9 20.56C719.58 18.92 717.8 18.04 715.56 17.92C714.6 17.88 713.4 17.86 711.96 17.86ZM751.042 16.6C749.602 16.6 748.502 17.22 747.742 18.46C747.422 19.02 747.242 19.66 747.202 20.38V58C747.202 61.36 746.142 64.2 744.022 66.52C741.942 68.84 739.362 70 736.282 70V69.46C738.242 68.78 739.902 67.3 741.262 65.02C742.622 62.78 743.302 60.38 743.302 57.82V20.38C743.262 19.34 742.862 18.46 742.102 17.74C741.382 16.98 740.502 16.6 739.462 16.6H738.682V16H751.822V16.6H751.042Z" fill="white"/>
</g>
<line x1="2.01284e-10" y1="57" x2="700" y2="57" stroke="white" stroke-width="2"/>
<line x1="747" y1="57" x2="1447" y2="57" stroke="white" stroke-width="2"/>
<defs>
<filter id="filter0_d" x="695.6" y="16" width="60.222" height="62" filterUnits="userSpaceOnUse" color-interpolation-filters="sRGB">
<feFlood flood-opacity="0" result="BackgroundImageFix"/>
<feColorMatrix in="SourceAlpha" type="matrix" values="0 0 0 0 0 0 0 0 0 0 0 0 0 0 0 0 0 0 127 0"/>
<feOffset dy="4"/>
<feGaussianBlur stdDeviation="2"/>
<feColorMatrix type="matrix" values="0 0 0 0 0 0 0 0 0 0 0 0 0 0 0 0 0 0 0.25 0"/>
<feBlend mode="normal" in2="BackgroundImageFix" result="effect1_dropShadow"/>
<feBlend mode="normal" in="SourceGraphic" in2="effect1_dropShadow" result="shape"/>
</filter>
</defs>
</svg>
