<svg width="101" height="142" viewBox="0 0 101 142" fill="none" xmlns="http://www.w3.org/2000/svg">
<path d="M23.8629 0H39.1233V6.36286H30.2448V12.7257H39.1241V19.0882H23.8629V0Z" fill="blue"/>
<path d="M42.1758 0H57.4367V5.53289H48.5578V6.63939H57.4367V19.3651H42.1762V13.5549H51.0551V12.4484H42.1754V0H42.1758Z" fill="blue"/>
<path d="M60.4891 0H75.75V5.53289H66.8711V6.63939H75.75V19.3651H60.4891V13.5549H69.3681V12.4484H60.4895V0H60.4891Z" fill="blue"/>
<path d="M1 24H101L91.9062 113.846L50.8943 124L10.1066 113.841L1 24ZM82.3833 42.3851L19.6231 42.3739L20.635 53.2951L68.8514 53.3063L67.641 64.6253H36.0176L37.1639 75.3448H66.6036L64.8617 90.026L51.0032 93.3769L36.9334 89.998L36.0304 81.2061H23.6065L24.9898 97.2713L51.0032 104.36L76.5876 97.9886L82.3833 42.3851V42.3851Z" fill="blue"/>
</svg>
