<svg width="100" height="100" viewBox="0 0 100 100" fill="none" xmlns="http://www.w3.org/2000/svg">
<path d="M54.5833 14.5833L57.5 19.1666L60.4166 14.5833V20.8333H64.5833V8.33331H60.4166L57.5 12.9166L55 8.33331H50.4167V20.8333H54.5833V14.5833ZM76.6666 20.8333V16.6666H70.8333V8.33331H66.6666V20.8333H76.6666ZM40.8333 20.8333H45V12.5H48.75V8.33331H37.0833V12.5H40.8333V20.8333ZM27.5 16.6666H31.25V20.8333H35.4166V8.33331H31.25V12.5H27.5V8.33331H23.3333V20.8333H27.5V16.6666ZM20.8333 25L25.8333 85L50 91.6666L74.1666 85L79.1667 25H20.8333ZM67.9166 44.1666H39.5833L40.4166 51.6666H67.0833L65 74.5833L50 78.75L35 74.5833L33.75 62.5H41.25L41.6666 68.75L50 70.8333L58.3333 68.75L59.1666 59.1666H33.3333L31.25 37.0833H68.75L67.9166 44.1666V44.1666Z" fill="blue"/>
</svg>
