<svg width="105" height="79" viewBox="0 0 105 79" fill="none" xmlns="http://www.w3.org/2000/svg">
<path d="M97.44 79H7.56C3.4125 79 0 74.8525 0 69.7175V9.2825C0 4.1475 3.4125 0 7.56 0H97.44C101.587 0 105 4.1475 105 9.2825V69.7175C105 74.8525 101.587 79 97.44 79V79ZM25.2525 60.5008V36.4058L35.3325 51.8767L45.4125 36.4058V60.5008H55.545V18.4992H45.4125L35.3325 33.97L25.2525 18.4992H15.1725V60.5008H25.2525V60.5008ZM92.8725 39.5H82.7925V18.4992H72.7125V39.5H62.58L77.7525 61.0933L92.8725 39.5Z" fill="blue"/>
</svg>
