<svg width="100" height="100" viewBox="0 0 100 100" fill="none" xmlns="http://www.w3.org/2000/svg">
<path d="M50 41.0812C45.0844 41.0812 41.0812 45.0844 41.0812 50C41.0812 54.9156 45.0844 58.9187 50 58.9187C54.9156 58.9187 58.9188 54.9156 58.9188 50C58.9188 45.0844 54.9156 41.0812 50 41.0812ZM25.0313 67.725L23.0625 67.2375C8.4125 63.525 0 57.2437 0 49.9844C0 42.725 8.41563 36.4437 23.0625 32.7312L25.0313 32.2437L25.5844 34.1969C27.0705 39.3125 28.9706 44.2988 31.2656 49.1062L31.6875 49.9844L31.2656 50.8781C28.9658 55.6835 27.0656 60.6702 25.5844 65.7875L25.0313 67.725ZM22.1531 37.2875C11.0188 40.4125 4.18437 45.2125 4.18437 49.9844C4.18437 54.7562 11.0219 59.5375 22.1531 62.6812C23.5177 58.3457 25.1649 54.1044 27.0844 49.9844C25.1623 45.8655 23.5149 41.624 22.1531 37.2875V37.2875ZM74.9687 67.725L74.4156 65.7719C72.9321 60.6604 71.0319 55.6791 68.7344 50.8781L68.3125 49.9844L68.7344 49.0906C71.0342 44.2852 72.9344 39.2986 74.4156 34.1812L74.9687 32.2437L76.9375 32.7312C91.5875 36.4437 100 42.725 100 49.9844C100 57.2437 91.5844 63.525 76.9375 67.2375L74.9687 67.725ZM72.9156 49.9844C74.8414 54.1016 76.4889 58.3434 77.8469 62.6812C88.9969 59.5406 95.8156 54.7562 95.8156 49.9844C95.8156 45.2125 88.9781 40.4312 77.8469 37.2875C76.4791 41.6219 74.8319 45.863 72.9156 49.9844ZM22.1188 37.2719L21.5656 35.3187C17.4469 20.8 18.7 10.3844 25 6.75311C31.1844 3.18748 41.0969 7.40311 51.4969 18.0812L52.9125 19.5312L51.4969 20.9812C47.8036 24.8238 44.4289 28.9604 41.4062 33.35L40.8375 34.1469L39.8594 34.2281C34.5421 34.6478 29.2676 35.4975 24.0875 36.7687L22.1188 37.2719ZM30.0281 9.65311C28.9063 9.65311 27.9125 9.88124 27.0813 10.3687C22.9469 12.7625 22.2156 21.0625 25.0625 32.2594C29.5045 31.2657 34.0069 30.5642 38.5406 30.1594C41.1508 26.4418 44.005 22.9017 47.0844 19.5625C40.5906 13.2312 34.4375 9.64999 30.0281 9.64999V9.65311ZM69.9875 94.4812C69.9719 94.4812 69.9719 94.4812 69.9875 94.4812C64.0469 94.4812 56.4125 90.0219 48.5031 81.8844L47.0875 80.4344L48.5031 78.9844C52.1964 75.1418 55.5711 71.0053 58.5938 66.6156L59.1469 65.8187L60.125 65.7219C65.4491 65.3163 70.73 64.4664 75.9125 63.1812L77.8813 62.6937L78.4344 64.6469C82.5531 79.1656 81.3 89.5656 75 93.1938C73.4768 94.0692 71.744 94.5132 69.9875 94.4781V94.4812ZM52.9125 80.4031C59.4062 86.7344 65.5594 90.3156 69.9687 90.3156H69.9844C71.0906 90.3156 72.0844 90.0719 72.9156 89.6C77.05 87.2063 77.8 78.9062 74.9344 67.7094C70.4932 68.704 65.9904 69.4004 61.4563 69.7937C58.8462 73.5163 55.992 77.0616 52.9125 80.4062V80.4031ZM77.8813 37.2719L75.9125 36.7687C70.7263 35.5017 65.4469 34.6521 60.125 34.2281L59.1469 34.1469L58.5938 33.35C55.5711 28.9604 52.1964 24.8238 48.5031 20.9812L47.0875 19.5312L48.5031 18.0812C58.9031 7.40311 68.8156 3.18748 75 6.75311C81.3 10.3812 82.5531 20.8 78.4344 35.3187L77.8813 37.2719ZM61.4594 30.1594C65.9933 30.5631 70.4957 31.2646 74.9375 32.2594C77.8031 21.0625 77.0531 12.7594 72.9187 10.3687C68.8 7.99374 61.0531 11.6375 52.9156 19.5656C55.9867 22.912 58.8404 26.4516 61.4594 30.1625V30.1594ZM30.0281 94.4812C28.2688 94.5125 26.5281 94.075 25 93.1969C18.7 89.5687 17.4469 79.1656 21.5656 64.65L22.1188 62.6969L24.0875 63.1844C28.9063 64.4062 34.2125 65.25 39.8594 65.725L40.8375 65.8219L41.3906 66.6187C44.4133 71.0084 47.788 75.1449 51.4813 78.9875L52.8969 80.4375L51.4813 81.8875C43.5875 90.025 35.9531 94.4844 30.0281 94.4844V94.4812ZM25.0656 67.7094C22.2 78.9062 22.95 87.2094 27.0844 89.6C31.2031 91.9438 38.9344 88.3312 47.0875 80.4031C44.008 77.0585 41.1538 73.5132 38.5437 69.7906C34.0094 69.3984 29.5066 68.7021 25.0656 67.7062V67.7094ZM50 70.3281C46.5656 70.3281 43.05 70.1812 39.5187 69.8875L38.5406 69.8062L37.9719 68.9937C35.9772 66.1277 34.1037 63.1793 32.3563 60.1562C30.6052 57.133 28.9819 54.0376 27.4906 50.8781L27.0687 49.9844L27.4906 49.0906C30.4782 42.773 33.9839 36.7138 37.9719 30.975L38.5406 30.1625L39.5187 30.0812C46.4939 29.4937 53.5061 29.4937 60.4813 30.0812L61.4594 30.1625L62.0281 30.975C66.0212 36.7105 69.5272 42.7702 72.5094 49.0906L72.9312 49.9844L72.5094 50.8781C69.5332 57.2017 66.0269 63.2618 62.0281 68.9937L61.4594 69.8062L60.4813 69.8875C56.9951 70.1792 53.4983 70.3262 50 70.3281V70.3281ZM40.8531 65.8031C47.0062 66.275 52.9937 66.275 59.1625 65.8031C62.6028 60.7653 65.6604 55.4765 68.3094 49.9812C65.6716 44.4769 62.6081 39.1869 59.1469 34.1594C53.0581 33.6875 46.9419 33.6875 40.8531 34.1594C37.3894 39.1853 34.3258 44.4755 31.6906 49.9812C34.3404 55.4793 37.4033 60.7684 40.8531 65.8031V65.8031Z" fill="blue"/>
</svg>
