<svg width="105" height="57" viewBox="0 0 105 57" fill="none" xmlns="http://www.w3.org/2000/svg">
<path d="M32.0193 37.6965C37.2766 37.6965 41.5386 33.4659 41.5386 28.2468C41.5386 23.0284 37.2766 18.7978 32.0188 18.7978C26.7619 18.7978 22.4999 23.028 22.4999 28.2472C22.4999 33.4659 26.7619 37.6965 32.0193 37.6965ZM9.51932 56.5949C14.7767 56.5949 19.0386 52.3647 19.0386 47.1455C19.0386 41.9272 14.7767 37.6965 9.51891 37.6965C4.26234 37.6965 0 41.9268 0 47.1455C0 52.3643 4.26152 56.5953 9.51932 56.5953V56.5949ZM95.4807 56.5949C100.738 56.5949 105 52.3647 105 47.1455C105 41.9272 100.738 37.6965 95.4807 37.6965C90.2233 37.6965 85.9614 41.9268 85.9614 47.1455C85.9614 52.3643 90.2233 56.5953 95.4811 56.5953L95.4807 56.5949Z" fill="white"/>
<path d="M64.2161 28.6454C63.9118 25.4884 63.7567 22.8607 61.3204 21.0139C58.2352 18.6752 54.7399 20.1927 50.4349 18.65C46.2041 17.6342 43.0664 13.906 43.0664 9.462C43.0664 4.23632 47.405 0 52.7568 0C56.7209 0 60.1289 2.32356 61.6301 5.65236C63.9274 9.98436 62.434 14.3925 65.3207 16.6131C68.7385 19.2424 73.3466 17.317 78.4883 19.8083C80.1294 20.5559 81.5274 21.744 82.5243 23.2385C83.5421 24.7647 84.0839 26.5549 84.082 28.3852C84.082 32.8292 80.9443 36.5578 76.714 37.5736C72.4086 39.1163 68.9132 37.5988 65.828 39.9375C62.3581 42.5676 64.2157 46.9676 61.3877 51.6151C59.7827 54.676 56.5204 56.7708 52.7568 56.7708C47.405 56.7708 43.0664 52.5345 43.0664 47.3088C43.0664 43.513 45.3559 40.2391 48.6601 38.7319C53.8018 36.2402 58.4095 38.166 61.8278 35.5366C63.7994 34.0196 64.2161 31.6798 64.2161 28.6454V28.6454Z" fill="white"/>
</svg>
