<svg width="111" height="48" viewBox="0 0 111 48" fill="none" xmlns="http://www.w3.org/2000/svg">
<path d="M74.9898 0L74.6429 1.79152C74.1064 5.18671 74.3006 6.15807 75.7714 7.4181L77.1913 8.5819L75.7205 15.079C74.8417 18.9553 73.7641 22.2039 73.0796 23.2715C72.4922 24.1924 71.8078 25.5487 71.6598 26.2772C71.4146 27.1478 70.5821 28.0229 69.3103 28.7972C68.1864 29.4295 65.9803 31.1249 64.417 32.4857C63.1683 33.5991 62.308 34.2818 61.8409 34.575L60.3146 35.7709C59.9221 36.3475 59.6269 36.9835 59.4405 37.6541C59.3341 38.1443 59.3943 38.4696 59.5515 38.7079C59.7041 38.937 59.9677 39.0974 60.3285 39.1982C60.7555 39.2973 61.1951 39.3328 61.6328 39.3035C62.6228 39.2365 63.6027 39.0645 64.5558 38.7904C64.8795 38.7033 65.1339 38.6208 65.3559 38.5475C65.6981 38.1306 66.489 37.3425 67.8904 35.9725C71.6089 32.3391 73.0287 30.3505 71.5626 30.8866C71.0215 31.079 71.2666 30.5934 72.1962 29.622C74.1572 27.7297 75.2811 24.8706 77.6306 15.9038C79.4899 8.82474 79.4899 8.72394 80.8589 8.72394C81.5017 8.72394 83.3194 8.8339 83.3194 8.8339V0H79.1476H74.9898ZM92.7451 14.5017C92.4491 14.5017 91.9589 14.9416 91.6675 15.4273C91.131 16.2978 91.7646 16.8293 99.8399 21.8236C104.636 24.8339 108.502 27.3998 108.405 27.5968C108.308 27.7388 104.391 30.2635 99.6965 33.173C91.1772 38.4055 91.131 38.4559 91.9126 39.5235C92.8931 40.7835 91.9126 41.2188 102.971 34.3826L111 29.2921V25.4616L102.041 19.9817C97.199 16.9759 92.9902 14.5521 92.7451 14.5017ZM18.352 15.0378C18.1069 15.0378 13.8981 17.512 9.05575 20.4674L0 25.9473V29.7778L9.00488 35.3539C13.9999 38.4055 18.2086 40.9301 18.4029 40.9301C18.5971 40.9301 18.9902 40.4903 19.3834 39.9588C19.9707 39.0378 19.4759 38.6483 11.2064 33.4616C3.33 28.5636 2.4975 27.8855 3.28375 27.354C3.774 27.0149 7.4925 24.7331 11.507 22.2635C20.6599 16.6873 20.1696 17.0722 19.4343 15.9084C19.1429 15.4273 18.648 14.992 18.3566 15.0378H18.352ZM58.5155 15.1432C57.165 15.134 54.2605 17.173 45.5655 24.2062C45.1909 25.0905 45.1585 25.6999 45.3296 26.0939C45.4406 26.3643 45.6441 26.5521 45.9263 26.6896C46.2038 26.827 46.5645 26.9095 46.9623 26.9416C47.7531 27.0103 48.6874 26.8866 49.4412 26.74L49.95 26.6254C50.1241 26.3941 50.3528 26.2085 50.616 26.0848C51.1525 25.7915 53.4049 23.7572 55.6573 21.5762C59.6209 17.5991 60.5505 15.803 58.9364 15.2211C58.804 15.1689 58.6626 15.1424 58.5201 15.1432H58.5155ZM68.672 17.9061C67.4834 17.9381 65.342 19.3035 61.6744 22.2039C59.8336 23.6838 58.6681 24.4811 58.0438 24.646L55.6203 26.543C54.7091 28.1924 54.575 29.2142 54.8155 29.7778C54.8757 29.9168 54.9631 30.0426 55.0726 30.148C55.1822 30.2534 55.3117 30.3362 55.4537 30.3918C55.8071 30.53 56.1839 30.6 56.5637 30.5979C57.4715 30.5883 58.3739 30.4573 59.2463 30.2085C59.7009 30.0876 60.15 29.947 60.5921 29.7869L60.7263 29.732L60.9714 29.6037C61.4339 29.0126 62.4976 27.8992 63.8296 26.6163C68.0384 22.5934 70.189 19.7342 69.7496 18.6667C69.5508 18.1489 69.2085 17.8877 68.672 17.9061V17.9061ZM57.461 22.8545C57.1187 22.8912 56.351 23.4777 54.9681 24.6781C52.9701 26.4284 50.7918 27.4364 50.0379 26.9874C49.8627 27.0266 49.6869 27.0633 49.5106 27.0974C48.7429 27.2486 47.7855 27.3723 46.9299 27.3035C46.5267 27.2794 46.1316 27.1815 45.7644 27.0149C45.418 26.858 45.1416 26.5809 44.9874 26.236C44.8163 25.8236 44.8163 25.3104 45.0105 24.6552L42.0042 27.1019L35.2009 32.6781V41.7182L57.4934 24.3207C57.489 24.1302 57.514 23.9402 57.5674 23.7572C57.7385 23.1432 57.7292 22.8316 57.461 22.8591V22.8545ZM67.0533 25.7824C66.7156 25.7824 66.1514 26.2543 65.2495 27.2027C64.0239 28.4994 62.0952 29.7549 61.0731 30.0115L60.9159 30.0939C60.7481 30.1626 60.5784 30.2267 60.4071 30.2864C60.1296 30.378 59.7689 30.488 59.3526 30.5979C58.5201 30.8224 57.4841 31.0286 56.5591 31.0057C56.123 31.0052 55.6912 30.9212 55.2873 30.7583C54.9065 30.6028 54.6015 30.3072 54.4363 29.9336C54.168 29.2967 54.2744 28.4032 54.8618 27.134L35.1963 42.4788V48H43.8357L62.16 33.7411C62.6364 33.2188 63.3532 32.504 64.3199 31.6105C66.9099 29.2325 67.4972 28.4124 67.4972 27.1982C67.4972 26.2543 67.3909 25.7778 67.0533 25.7778V25.7824ZM71.4146 34.7171L69.8468 36.2657C68.968 37.0905 67.4001 38.1077 66.3271 38.543L66.1144 38.6346L66.1005 38.6575L66.0542 38.7033C66.0126 38.7354 65.9941 38.74 65.9618 38.7537C65.5334 38.9143 65.0982 39.0565 64.6575 39.1798C63.6775 39.4624 62.6696 39.6391 61.6512 39.7068C61.1698 39.7373 60.6864 39.6956 60.2175 39.583C59.8106 39.4943 59.4513 39.2592 59.2093 38.9232C58.9873 38.5842 58.9225 38.1306 59.0474 37.5716C59.1467 37.1736 59.2942 36.789 59.4868 36.4261L44.7006 48H64.3661L66.7156 45.3333C69.9439 41.6037 71.4146 38.937 71.4146 36.6552V34.7171Z" fill="white"/>
</svg>
