<svg width="200" height="200" viewBox="0 0 200 200" fill="none" xmlns="http://www.w3.org/2000/svg">
<path d="M141.667 109.417V140.225H123.808V111.475C123.808 104.258 121.225 99.3333 114.758 99.3333C109.825 99.3333 106.883 102.65 105.592 105.867C105.125 107.017 105 108.617 105 110.217V140.225H87.1333C87.1333 140.225 87.375 91.5416 87.1333 86.5H105V94.1083L104.883 94.2833H105V94.1166C107.375 90.45 111.608 85.2333 121.1 85.2333C132.85 85.2333 141.667 92.9166 141.667 109.417V109.417ZM68.4417 60.5916C62.3333 60.5916 58.3333 64.6083 58.3333 69.875C58.3333 75.0416 62.2167 79.1666 68.2083 79.1666H68.325C74.5583 79.1666 78.4333 75.0333 78.4333 69.875C78.3167 64.6083 74.5583 60.5916 68.4417 60.5916ZM59.3917 140.225H77.2583V86.5H59.3917V140.225V140.225Z" fill="white"/>
<path d="M50 33.3333C45.5797 33.3333 41.3405 35.0893 38.2149 38.2149C35.0893 41.3405 33.3333 45.5797 33.3333 50V150C33.3333 154.42 35.0893 158.66 38.2149 161.785C41.3405 164.911 45.5797 166.667 50 166.667H150C154.42 166.667 158.66 164.911 161.785 161.785C164.911 158.66 166.667 154.42 166.667 150V50C166.667 45.5797 164.911 41.3405 161.785 38.2149C158.66 35.0893 154.42 33.3333 150 33.3333H50ZM50 16.6667H150C158.841 16.6667 167.319 20.1786 173.57 26.4298C179.821 32.681 183.333 41.1595 183.333 50V150C183.333 158.841 179.821 167.319 173.57 173.57C167.319 179.821 158.841 183.333 150 183.333H50C41.1595 183.333 32.681 179.821 26.4298 173.57C20.1786 167.319 16.6667 158.841 16.6667 150V50C16.6667 41.1595 20.1786 32.681 26.4298 26.4298C32.681 20.1786 41.1595 16.6667 50 16.6667V16.6667Z" fill="white"/>
</svg>
