<svg width="200" height="200" viewBox="0 0 200 200" fill="none" xmlns="http://www.w3.org/2000/svg">
<path d="M141.667 74.5583C138.6 75.8917 135.308 76.8083 131.85 77.2083C135.383 75.125 138.083 71.825 139.367 67.9C136 69.8622 132.326 71.2427 128.5 71.9833C126.891 70.2964 124.955 68.9551 122.81 68.041C120.665 67.1269 118.356 66.6593 116.025 66.6667C106.583 66.6667 98.9333 74.2083 98.9333 83.5C98.9333 84.8167 99.0833 86.1 99.375 87.3333C92.6027 87.0117 85.9718 85.282 79.9054 82.2545C73.839 79.2271 68.4702 74.9683 64.1417 69.75C62.6214 72.3092 61.8209 75.2316 61.825 78.2083C61.825 84.0417 64.85 89.2083 69.4333 92.2167C66.7204 92.1316 64.0655 91.4093 61.6833 90.1083V90.3167C61.7091 94.2288 63.09 98.0111 65.591 101.02C68.0919 104.028 71.5584 106.077 75.4 106.817C72.878 107.484 70.2391 107.58 67.675 107.1C68.7927 110.466 70.9306 113.4 73.7919 115.495C76.6531 117.59 80.0957 118.742 83.6417 118.792C77.558 123.48 70.0887 126.012 62.4083 125.992C61.0333 125.992 59.675 125.908 58.3333 125.758C66.1706 130.719 75.258 133.346 84.5333 133.333C115.983 133.333 133.175 107.683 133.175 85.4333L133.117 83.25C136.469 80.894 139.366 77.949 141.667 74.5583V74.5583Z" fill="white"/>
<path d="M50 33.3333C45.5797 33.3333 41.3405 35.0893 38.2149 38.2149C35.0893 41.3405 33.3333 45.5797 33.3333 50V150C33.3333 154.42 35.0893 158.66 38.2149 161.785C41.3405 164.911 45.5797 166.667 50 166.667H150C154.42 166.667 158.66 164.911 161.785 161.785C164.911 158.66 166.667 154.42 166.667 150V50C166.667 45.5797 164.911 41.3405 161.785 38.2149C158.66 35.0893 154.42 33.3333 150 33.3333H50ZM50 16.6667H150C158.841 16.6667 167.319 20.1786 173.57 26.4298C179.821 32.681 183.333 41.1595 183.333 50V150C183.333 158.841 179.821 167.319 173.57 173.57C167.319 179.821 158.841 183.333 150 183.333H50C41.1595 183.333 32.681 179.821 26.4298 173.57C20.1786 167.319 16.6667 158.841 16.6667 150V50C16.6667 41.1595 20.1786 32.681 26.4298 26.4298C32.681 20.1786 41.1595 16.6667 50 16.6667V16.6667Z" fill="white"/>
</svg>
