<svg width="200" height="200" viewBox="0 0 200 200" fill="none" xmlns="http://www.w3.org/2000/svg">
<path d="M84.8333 141.733C85.8333 141.733 86.5917 141.7 87.0917 141.633C87.6782 141.515 88.2071 141.2 88.5916 140.742C89.0916 140.217 89.3417 139.458 89.3417 138.458L89.3083 133.817C89.2833 130.858 89.275 128.508 89.275 126.783L87.7083 127.058C86.4546 127.256 85.1851 127.334 83.9167 127.292C82.323 127.263 80.7343 127.105 79.1667 126.817C77.503 126.506 75.9374 125.804 74.6 124.767C73.198 123.706 72.1517 122.244 71.6 120.575L70.9167 119C70.3419 117.76 69.62 116.593 68.7667 115.525C68.0005 114.43 66.9795 113.538 65.7917 112.925L65.3167 112.592C64.9896 112.351 64.6929 112.071 64.4333 111.758C64.1814 111.474 63.9735 111.154 63.8167 110.808C63.6833 110.492 63.7917 110.225 64.15 110.025C64.7789 109.772 65.4573 109.667 66.1333 109.717L67.5 109.925C68.4167 110.1 69.5417 110.65 70.8833 111.558C72.2167 112.475 73.325 113.65 74.1917 115.108C75.2417 116.975 76.5 118.4 77.9833 119.375C79.2926 120.298 80.8482 120.809 82.45 120.842C83.95 120.842 85.25 120.733 86.3417 120.508C87.4043 120.288 88.4366 119.941 89.4166 119.475C89.825 116.433 90.9333 114.083 92.75 112.45C90.3915 112.217 88.0542 111.804 85.7583 111.217C83.5166 110.599 81.361 109.703 79.3417 108.55C77.2269 107.403 75.3582 105.851 73.8417 103.983C72.3917 102.158 71.2 99.775 70.2583 96.8166C69.2765 93.4934 68.8072 90.0398 68.8667 86.575C68.8667 81.075 70.6667 76.3833 74.2583 72.5166C72.575 68.375 72.7333 63.7333 74.7333 58.5917C76.0583 58.175 78.0167 58.4833 80.6083 59.5083C83.2 60.5333 85.1083 61.4083 86.3083 62.1416C87.5167 62.8666 88.475 63.475 89.2083 63.975C93.4765 62.7896 97.887 62.1952 102.317 62.2083C106.817 62.2083 111.192 62.7917 115.425 63.9833L118.008 62.3417C119.792 61.2583 121.883 60.25 124.292 59.3416C126.708 58.425 128.55 58.175 129.825 58.5917C131.875 63.7333 132.058 68.375 130.367 72.5083C133.967 76.3833 135.767 81.0666 135.767 86.575C135.767 90.4416 135.3 93.8666 134.367 96.85C133.433 99.8333 132.225 102.217 130.75 104.017C129.209 105.866 127.331 107.407 125.217 108.558C123.197 109.712 121.042 110.607 118.8 111.225C116.501 111.81 114.161 112.22 111.8 112.45C114.167 114.492 115.35 117.725 115.35 122.142V138.45C115.35 139.225 115.467 139.85 115.692 140.333C115.798 140.564 115.949 140.77 116.136 140.94C116.324 141.111 116.544 141.242 116.783 141.325C117.283 141.5 117.733 141.617 118.117 141.658C118.508 141.708 119.058 141.733 119.783 141.733H84.8417H84.8333Z" fill="white"/>
<path d="M50 33.3333C45.5797 33.3333 41.3405 35.0893 38.2149 38.2149C35.0893 41.3405 33.3333 45.5797 33.3333 50V150C33.3333 154.42 35.0893 158.66 38.2149 161.785C41.3405 164.911 45.5797 166.667 50 166.667H150C154.42 166.667 158.66 164.911 161.785 161.785C164.911 158.66 166.667 154.42 166.667 150V50C166.667 45.5797 164.911 41.3405 161.785 38.2149C158.66 35.0893 154.42 33.3333 150 33.3333H50ZM50 16.6667H150C158.841 16.6667 167.319 20.1786 173.57 26.4298C179.821 32.681 183.333 41.1595 183.333 50V150C183.333 158.841 179.821 167.319 173.57 173.57C167.319 179.821 158.841 183.333 150 183.333H50C41.1594 183.333 32.681 179.821 26.4298 173.57C20.1786 167.319 16.6667 158.841 16.6667 150V50C16.6667 41.1595 20.1786 32.681 26.4298 26.4298C32.681 20.1786 41.1594 16.6667 50 16.6667V16.6667Z" fill="white"/>
</svg>
