<svg width="100" height="100" viewBox="0 0 100 100" fill="none" xmlns="http://www.w3.org/2000/svg">
<g clip-path="url(#clip0)">
<path d="M50.0313 2.00311C22.4594 2.01874 0.015625 24.3 0 51.6625V51.7937L8.5125 56.7594L8.625 56.6781C12.6814 53.8944 17.4897 52.413 22.4094 52.4312C23.9563 52.4312 25.4688 52.5625 26.9344 52.8375L26.7875 52.8219C31.2633 53.6202 35.4155 55.6877 38.75 58.7781L38.7344 58.7625L40.2 60.1312L41.0313 58.325C41.8281 56.5656 42.7563 54.9219 43.7813 53.425C44.1875 52.8375 44.6438 52.2219 45.1656 51.5687L46.0125 50.4937L44.9531 49.6156C40.3634 45.7715 34.8566 43.1812 28.9688 42.0969L28.7562 42.0656C23.0852 41.0404 17.2506 41.3974 11.7469 43.1062L12.0063 43.0406C16.0594 25.3 31.65 12.9469 50.0594 12.9312C60.363 12.9022 70.2566 16.9655 77.5656 24.2281C82.7593 29.3586 86.384 35.8624 88.0156 42.9781C84.6473 41.9355 81.1417 41.4036 77.6156 41.4H76.9656C75.4844 41.4312 74.0531 41.5469 72.6531 41.725C72.1156 41.8062 71.5781 41.8875 71.0406 41.9844C70.2518 42.1158 69.4696 42.2847 68.6969 42.4906L68.1094 42.6375C67.4406 42.8156 66.775 43.0125 66.1062 43.2406L65.975 43.2719C64.4937 43.775 63.0281 44.3937 61.5969 45.1125L61.4844 45.1625C60.85 45.4875 60.2156 45.8312 59.5312 46.2375L59.3844 46.3187C56.0514 48.3052 53.0791 50.8422 50.5938 53.8219L50.5625 53.8875L50.2375 54.2625C49.6844 54.9469 49.1625 55.6469 48.675 56.3625C48.3 56.9 47.925 57.4844 47.4719 58.25L47.2281 58.6719C46.8875 59.275 46.5594 59.875 46.25 60.4781L46.1844 60.5906C45.4688 62.0219 44.85 63.5031 44.3437 65.0344L44.2781 65.2469C43.0562 68.8957 42.4726 72.7279 42.5531 76.575V76.5437L42.5687 77.0156C42.5844 77.6656 42.6187 78.2375 42.65 78.8062V78.6437C42.7 79.2312 42.7469 79.8 42.8281 80.3687L42.8438 80.5469L42.8937 80.9687C42.975 81.5062 43.0563 82.0281 43.1531 82.5469C44.1625 87.8219 46.6687 93.0937 50.4281 97.7969L50.5906 98.0094L50.7688 97.7969C52.2656 96.0375 55.9781 90.425 56.2875 87.0531L56.3031 87.0031L56.2719 86.9375C54.5173 83.6058 53.6012 79.8967 53.6031 76.1312C53.6031 63.5656 63.4812 53.1156 76.0969 52.3687L76.9281 52.3375C82.0738 52.2271 87.1259 53.7236 91.3813 56.6187L91.4937 56.6844L100.006 51.7375V51.625C100.023 45.0946 98.7381 38.6263 96.2259 32.5985C93.7137 26.5706 90.0248 21.1041 85.375 16.5187C80.7258 11.8947 75.21 8.23345 69.1435 5.74474C63.0769 3.25604 56.579 1.98879 50.0219 2.01561L50.0313 2.00311Z" fill="white"/>
</g>
<defs>
<clipPath id="clip0">
<rect width="100" height="100" fill="white"/>
</clipPath>
</defs>
</svg>
