<svg width="100" height="100" viewBox="0 0 100 100" fill="none" xmlns="http://www.w3.org/2000/svg">
<path d="M63.8832 36.1167C67.4927 36.0084 70.918 34.4984 73.4328 31.907C75.9476 29.3155 77.3541 25.8465 77.3541 22.2354C77.3541 18.6244 75.9476 15.1553 73.4328 12.5639C70.918 9.97248 67.4927 8.4625 63.8832 8.35418H36.1166C32.5071 8.4625 29.0818 9.97248 26.567 12.5639C24.0522 15.1553 22.6457 18.6244 22.6457 22.2354C22.6457 25.8465 24.0522 29.3155 26.567 31.907C29.0818 34.4984 32.5071 36.0084 36.1166 36.1167C32.4756 36.1798 29.005 37.6704 26.4525 40.2676C23.8999 42.8647 22.4696 46.3606 22.4696 50.0021C22.4696 53.6436 23.8999 57.1395 26.4525 59.7366C29.005 62.3338 32.4756 63.8244 36.1166 63.8875C32.4934 63.9763 29.0484 65.478 26.5172 68.0719C23.9861 70.6659 22.5692 74.1466 22.5692 77.7708C22.5692 81.3951 23.9861 84.8758 26.5172 87.4698C29.0484 90.0637 32.4934 91.5654 36.1166 91.6542C39.7987 91.652 43.3293 90.188 45.9326 87.5839C48.5359 84.9799 49.9988 81.4488 49.9999 77.7667V36.1167H63.8832Z" fill="white"/>
<path d="M63.8833 63.8832C71.5509 63.8832 77.7667 57.6674 77.7667 49.9999C77.7667 42.3323 71.5509 36.1166 63.8833 36.1166C56.2158 36.1166 50 42.3323 50 49.9999C50 57.6674 56.2158 63.8832 63.8833 63.8832Z" fill="white"/>
</svg>
