<svg width="100" height="100" viewBox="0 0 100 100" fill="none" xmlns="http://www.w3.org/2000/svg">
<g clip-path="url(#clip0)">
<path d="M98.1129 45.5407L54.4441 1.88754C53.8461 1.28802 53.1357 0.812368 52.3536 0.487824C51.5715 0.16328 50.7331 -0.00377655 49.8863 -0.00377655C49.0395 -0.00377655 48.2011 0.16328 47.419 0.487824C46.6369 0.812368 45.9265 1.28802 45.3285 1.88754L36.2785 10.9532L47.7847 22.4438C49.1364 21.9853 50.5894 21.9147 51.9791 22.24C53.3688 22.5654 54.6396 23.2736 55.6472 24.2844C57.7972 26.4344 58.3972 29.525 57.4879 32.1938L68.5566 43.2782C69.9127 42.8059 71.3747 42.7264 72.774 43.0487C74.1733 43.3711 75.4531 44.0821 76.466 45.1001C79.4785 48.0938 79.4785 52.9438 76.466 55.9407C75.7557 56.6524 74.9121 57.217 73.9833 57.6022C73.0546 57.9875 72.059 58.1857 71.0535 58.1857C70.048 58.1857 69.0524 57.9875 68.1237 57.6022C67.1949 57.217 66.3513 56.6524 65.641 55.9407C64.5743 54.8734 63.8451 53.5161 63.5439 52.0375C63.2428 50.559 63.383 49.0245 63.9472 47.6251L53.5785 37.3063V64.5032C54.3097 64.8626 55.0097 65.3501 55.6129 65.9532C58.591 68.9657 58.591 73.7969 55.6129 76.7938C54.1692 78.2317 52.2145 79.039 50.1769 79.039C48.1393 79.039 46.1847 78.2317 44.741 76.7938C43.8476 75.9001 43.189 74.7995 42.8238 73.5898C42.4586 72.3801 42.3981 71.0989 42.6477 69.8601C42.8973 68.6214 43.4493 67.4636 44.2545 66.4897C45.0597 65.5158 46.0931 64.7561 47.2629 64.2782V36.8219C46.3298 36.4257 45.4796 35.8574 44.7566 35.1469C43.6813 34.0744 42.9504 32.7054 42.6576 31.2151C42.3647 29.7248 42.5233 28.181 43.1129 26.7813L31.816 15.4219L1.86912 45.3532C0.671945 46.5681 0.000854492 48.2053 0.000854492 49.911C0.000854492 51.6167 0.671945 53.2539 1.86912 54.4688L45.5379 98.1219C46.1359 98.7215 46.8463 99.1971 47.6284 99.5217C48.4105 99.8462 49.2489 100.013 50.0957 100.013C50.9425 100.013 51.7809 99.8462 52.563 99.5217C53.3451 99.1971 54.0555 98.7215 54.6535 98.1219L98.1097 54.6657C98.7093 54.0677 99.1849 53.3573 99.5095 52.5752C99.834 51.7931 100.001 50.9546 100.001 50.1079C100.001 49.2611 99.834 48.4226 99.5095 47.6405C99.1849 46.8584 98.7093 46.148 98.1097 45.5501L98.1129 45.5407Z" fill="white"/>
</g>
<defs>
<clipPath id="clip0">
<rect width="100" height="100" fill="white"/>
</clipPath>
</defs>
</svg>
