<svg width="100" height="100" viewBox="0 0 100 100" fill="none" xmlns="http://www.w3.org/2000/svg">
<path d="M66.0833 18.2917V80.7917C66.0833 87.75 70.8333 91.6667 76.0416 91.6667C80.7916 91.6667 86 88.375 86 80.7917V18.75C86 12.3333 81.25 8.33333 76.0416 8.33333C70.8333 8.33333 66.0833 12.75 66.0833 18.2917V18.2917ZM40.0416 50V80.7917C40.0416 87.7917 44.875 91.6667 50 91.6667C54.75 91.6667 59.9583 88.375 59.9583 80.7917V50.4583C59.9583 44.0417 55.2083 40.0417 50 40.0417C44.7916 40.0417 40.0416 44.4583 40.0416 50ZM23.9583 71.7917C29.4583 71.7917 33.9166 76.25 33.9166 81.7083C33.9166 84.3495 32.8674 86.8824 30.9999 88.7499C29.1323 90.6175 26.5994 91.6667 23.9583 91.6667C21.3172 91.6667 18.7842 90.6175 16.9167 88.7499C15.0491 86.8824 14 84.3495 14 81.7083C14 76.25 18.4583 71.7917 23.9583 71.7917Z" fill="white"/>
</svg>
