<svg width="100" height="100" viewBox="0 0 100 100" fill="none" xmlns="http://www.w3.org/2000/svg">
<g clip-path="url(#clip0)">
<path d="M85.875 7.46142e-05H14.125C12.9416 -0.00544268 11.7688 0.223583 10.6744 0.673921C9.57995 1.12426 8.5856 1.78698 7.74877 2.62381C6.91195 3.46064 6.24922 4.45499 5.79888 5.54941C5.34854 6.64383 5.11952 7.81663 5.12504 9.00008V91.0042C5.12007 92.1873 5.3495 93.3597 5.80009 94.4536C6.25067 95.5476 6.91349 96.5414 7.75026 97.3778C8.58703 98.2142 9.58119 98.8765 10.6753 99.3266C11.7695 99.7767 12.9419 100.006 14.125 100H85.875C87.0578 100.005 88.2298 99.7757 89.3235 99.3254C90.4171 98.8751 91.4108 98.2127 92.2471 97.3763C93.0835 96.54 93.7459 95.5463 94.1962 94.4527C94.6465 93.359 94.8758 92.187 94.8709 91.0042V9.00008C94.8769 7.81683 94.6484 6.64412 94.1986 5.54972C93.7487 4.45532 93.0863 3.46094 92.2498 2.62406C91.4133 1.78717 90.4193 1.12438 89.3251 0.673994C88.2309 0.223606 87.0583 -0.00544704 85.875 7.46142e-05V7.46142e-05ZM89.875 91.0042C89.875 93.2501 88.1209 95.0042 85.875 95.0042H14.125C13.5979 95.011 13.0747 94.9121 12.5864 94.7134C12.0981 94.5148 11.6544 94.2204 11.2816 93.8476C10.9089 93.4749 10.6145 93.0312 10.4158 92.5429C10.2172 92.0546 10.1183 91.5314 10.125 91.0042V9.00008C10.125 6.75008 11.875 4.99591 14.125 4.99591H85.875C86.4022 4.99032 86.9252 5.09011 87.4133 5.28941C87.9014 5.48872 88.3448 5.78352 88.7174 6.15651C89.09 6.52951 89.3843 6.97318 89.5831 7.46149C89.7819 7.94979 89.8812 8.47289 89.875 9.00008V91.0042ZM27.625 84.9959L38.875 75.0001L27.625 65.0001V84.9959ZM68.125 44.5001C66.1292 42.5001 62.3792 40.0001 56.1292 40.0001C49.375 40.0001 42.375 41.7542 37.3792 43.5001V15.0001H27.3792V58.2501L34.3792 55.0001C34.3792 55.0001 45.8792 49.7501 55.8792 49.7501C60.8792 49.7501 62.1292 52.5001 62.1292 55.0001V85.0001H72.1292V55.0001C72.375 54.2542 72.375 48.7459 68.125 44.5001V44.5001ZM54.875 31.2501H64.875C69.375 26.0001 71.625 20.7459 72.375 15.0001H62.3792C61.375 20.7459 58.875 26.0001 54.875 31.2501Z" fill="white"/>
</g>
<defs>
<clipPath id="clip0">
<rect width="100" height="100" fill="white"/>
</clipPath>
</defs>
</svg>
