<svg width="100" height="100" viewBox="0 0 100 100" fill="none" xmlns="http://www.w3.org/2000/svg">
<path d="M70.5603 35.5C71.0322 35.7406 71.4697 36.0656 71.8259 36.4594L81.6103 32.0969L72.4822 23.0469L70.429 35.3688L70.5603 35.5ZM50.2478 27.2781C50.7353 27.9938 51.0259 28.8063 51.1259 29.6688L65.6915 35.8406C66.129 35.5 66.6322 35.2531 67.1697 35.1063L69.5603 20.3094L60.6884 11L50.2415 27.0469L50.2478 27.2781ZM99.9665 50.1469L84.3572 34.5375L73.729 38.8844L99.8384 49.9844C99.8384 49.9844 100.067 50.1469 99.9665 50.1469ZM97.3634 52.6875L72.3009 41.975C71.9521 42.4368 71.5144 42.8243 71.0137 43.1146C70.5131 43.405 69.9594 43.5923 69.3853 43.6656L66.7009 60.1563C67.4978 60.9688 67.954 62.0594 67.954 63.1969L83.0884 66.3719L96.9728 52.5844V52.325L97.3634 52.6875ZM64.1603 38.5406L50.5572 32.7438C50.0893 33.4638 49.4431 34.0505 48.6814 34.4469C47.9197 34.8434 47.0684 35.0361 46.2103 35.0063H45.3822L34.104 52.4063L64.2134 39.3688V39.4031C64.1978 39.1701 64.1978 38.9362 64.2134 38.7031C64.229 38.6531 64.2134 38.5906 64.1634 38.5406H64.1603ZM80.6978 68.9969L67.3853 66.2438C66.8908 66.8916 66.2251 67.3883 65.4634 67.6781L62.2884 87.3563L80.779 69.0281C80.779 69.0281 80.7447 69.1281 80.6947 69.1281L80.6978 68.9969ZM62.0759 67.6406C61.4453 67.3826 60.884 66.9801 60.4373 66.4655C59.9906 65.951 59.6709 65.3388 59.504 64.6781L34.7165 59.5875L34.3572 60.1594L56.854 92.6938L58.204 91.3594L62.029 67.725C62.029 67.725 62.1572 67.8219 62.0759 67.775V67.6406ZM35.2384 56.5906L59.7353 61.6375C60.0865 61.0218 60.5832 60.5014 61.1818 60.1217C61.7805 59.742 62.4629 59.5146 63.1697 59.4594L65.8228 43.2469L65.2509 42.7594L34.8009 55.8125C34.9634 56.0531 35.1103 56.3156 35.2384 56.5906V56.5906ZM24.9665 60.675L24.4447 60.1594L13.8822 64.5L19.0072 69.5969L24.8353 60.5469L24.9665 60.675ZM31.9353 62.3375C31.1988 62.6693 30.4023 62.8469 29.5947 62.8594C28.9415 62.8594 28.3228 62.7594 27.704 62.55L21.2759 71.9094L49.4665 99.8375L54.429 94.9031L31.9353 62.3375ZM27.979 51.3344C28.4009 51.2875 28.8415 51.2875 29.279 51.3344C29.754 51.2719 30.2415 51.2719 30.7134 51.3344L42.104 33.625C41.2167 32.7017 40.7207 31.4712 40.7197 30.1906C40.6728 29.8129 40.6728 29.4309 40.7197 29.0531L26.8853 22.6563L15.7509 33.4938L27.979 51.3344ZM29.2353 20.4906L42.7259 26.2375C43.7002 25.4238 44.9418 25.0007 46.2103 25.05C46.7634 25.0656 47.3134 25.1469 47.8509 25.3094L58.3853 8.87189L49.6759 0.162514L29.2353 20.2281C29.2353 20.2281 29.2009 20.4406 29.2353 20.4906V20.4906ZM24.1884 54.5094C24.4634 54.0063 24.804 53.5344 25.1978 53.1094L13.6572 35.8875L0.00402832 49.1531L24.1884 54.5094ZM23.0978 57.4219L2.2134 53.0594L11.3915 62.3719L22.9665 57.4563L23.0978 57.4219Z" fill="white"/>
</svg>
