<svg width="100" height="100" viewBox="0 0 100 100" fill="none" xmlns="http://www.w3.org/2000/svg">
<path d="M65.9356 60.3034C66.0571 63.6993 67.8588 63.674 70.0014 63.5947C72.8874 63.5415 74.4716 62.6497 75.9197 63.3528C75.8969 63.2715 75.4446 61.9082 73.4459 62.1453C73.6779 61.6409 73.7767 60.9581 73.7063 60.0203C73.4432 56.6267 71.4849 53.9311 69.3368 54.0076C67.1941 54.0814 65.8168 56.8996 65.9356 60.3034V60.3034ZM69.135 56.1632C69.279 56.1603 69.4221 56.186 69.5561 56.2391C69.6902 56.2921 69.8125 56.3713 69.916 56.4722C70.0196 56.5731 70.1023 56.6936 70.1595 56.8268C70.2167 56.96 70.2472 57.1034 70.2492 57.2485C70.2545 57.5413 70.1444 57.8242 69.9432 58.0353C69.7419 58.2464 69.4659 58.3684 69.1755 58.3747C68.884 58.3792 68.6027 58.2669 68.3932 58.0625C68.1838 57.858 68.0634 57.5781 68.0586 57.2842C68.0561 57.1393 68.082 56.9953 68.1348 56.8605C68.1876 56.7257 68.2663 56.6028 68.3663 56.4987C68.4662 56.3945 68.5856 56.3113 68.7175 56.2537C68.8494 56.1962 68.9913 56.1654 69.135 56.1632V56.1632Z" fill="white"/>
<path d="M36.5169 64.2067C36.7395 64.2118 36.972 64.2067 37.2091 64.2015C37.4168 64.2015 37.6241 64.1963 37.8412 64.1888C39.9917 64.1682 41.7733 64.372 41.7454 60.9733C41.71 57.575 40.2139 54.823 38.0638 54.846C35.9184 54.8663 33.841 57.6535 33.9649 61.0498C34.0026 61.9365 34.1316 62.5733 34.3385 63.0345C32.4688 63.5111 31.9512 64.6754 31.9205 64.7491C33.0981 64.1099 34.4297 64.2015 36.5169 64.2067V64.2067ZM38.3642 56.9838C38.9707 56.9631 39.4733 57.4473 39.4938 58.0588C39.5007 58.3519 39.392 58.6359 39.1917 58.8485C38.9913 59.061 38.7156 59.1849 38.4248 59.1929C38.2807 59.1972 38.1372 59.1728 38.0024 59.121C37.8677 59.0692 37.7445 58.9912 37.6398 58.8912C37.5351 58.7913 37.451 58.6715 37.3923 58.5387C37.3337 58.4059 37.3016 58.2628 37.298 58.1175C37.2937 57.9723 37.3179 57.8277 37.3692 57.692C37.4205 57.5562 37.4979 57.4321 37.597 57.3267C37.6962 57.2213 37.815 57.1367 37.9466 57.0777C38.0783 57.0188 38.2202 56.9868 38.3642 56.9834V56.9838Z" fill="white"/>
<path d="M43.4105 20.767H49.4397V18.2601H50.7966V29.8421H48.7475V36.3215H59.3023V29.8421H57.2505V18.2601H58.6101V20.767H64.6444V12.1836H43.4105V20.767V20.767Z" fill="white"/>
<path d="M99.9637 37.3171C99.9253 36.5833 99.8561 35.8514 99.7564 35.1235C99.7057 34.7567 99.6526 34.3899 99.5771 34.0307C99.5063 33.6587 99.4355 33.3145 99.3167 32.9096L99.2408 32.6241L99.0414 32.4635C97.8914 31.5567 96.6557 30.8687 95.3999 30.2628C94.3616 29.7683 93.3076 29.3377 92.2437 28.9427C89.2696 20.6266 84.1651 13.2534 77.4461 8.11985C70.5045 2.81024 62.3397 0 53.8391 0C45.3337 0 37.1713 2.81024 30.2273 8.11985C24.9387 12.1605 20.6554 17.5923 17.6203 23.7759H17.6058C16.7787 25.4547 16.0473 27.1798 15.4151 28.9427C14.3485 29.3377 13.2949 29.7683 12.2562 30.2624C10.9977 30.8691 9.76468 31.5567 8.61469 32.4635L8.41254 32.6241L8.33703 32.9096C8.2315 33.2788 8.14369 33.6529 8.07391 34.0307C8.00312 34.3899 7.94531 34.7567 7.89693 35.1235C7.82378 35.6457 7.7758 36.1759 7.73293 36.7057H7.75063C7.73234 36.9101 7.71792 37.1149 7.70736 37.3199C7.63327 38.7884 7.67562 40.2605 7.834 41.7222C7.98854 43.1879 8.25894 44.6389 8.64261 46.0611C8.84384 46.7771 9.07917 47.4828 9.34779 48.1759C9.48151 48.5248 9.62821 48.8714 9.79221 49.2203C9.87323 49.3936 9.96172 49.5645 10.0502 49.7402L10.1942 49.9975C10.2496 50.0943 10.2878 50.1633 10.3711 50.2878L10.5151 50.5174L10.7475 50.6371C10.9925 50.7644 11.1974 50.8588 11.42 50.9659L12.0666 51.2613C12.1854 51.3097 12.3018 51.3604 12.4253 51.4116C9.4764 54.158 6.27224 57.7276 3.50031 62.1402L0 67.702L4.91498 63.3528C5.00111 63.2791 9.11968 59.6841 15.9933 55.6053L16.0892 56.4024L16.3394 58.4128L17.5979 68.7235C17.6254 68.9198 17.7265 69.0959 17.8885 69.2077L20.4685 71.0345C20.5138 71.1797 20.5566 71.3252 20.5999 71.4755C20.6605 71.6817 20.7159 71.8855 20.7792 72.0917L21.368 73.8828C22.6592 77.9315 24.4888 81.5824 26.7148 84.7899C26.6086 84.8232 26.5001 84.8534 26.3939 84.8843C25.0524 84.2578 20.3647 82.0665 18.7904 81.3504L15.4977 79.8602L17.4461 82.925C17.5877 83.1467 20.9484 88.4309 23.6904 91.9926C26.2602 95.3175 29.775 98.7111 36.4056 98.7111C37.2389 98.7075 38.0714 98.6598 38.8998 98.5683C40.8785 98.3364 42.3643 98.1583 43.4939 98.0104C50.4532 100.594 58.1299 100.747 65.4152 97.9668C67.3239 97.2365 69.1585 96.3229 70.8938 95.2386C70.9292 95.2335 70.9619 95.2228 70.9921 95.2156C73.7011 94.5582 76.7763 93.8167 78.2952 93.3888C78.5375 93.3226 78.8435 93.2484 79.1593 93.1723C81.2744 92.6857 84.8093 91.855 86.692 88.0538C88.5896 84.2169 91.688 78.3415 91.7183 78.2832L93.1688 75.5491L90.3512 76.7851C90.197 76.8513 86.624 78.4228 84.7664 79.4042C84.7035 79.4423 84.6225 79.4756 84.5493 79.5113C86.0604 76.4052 86.8135 73.9312 87.0837 72.9811L88.1024 68.7441L91.0359 62.1275C91.0359 62.1275 91.8595 54.8947 91.8776 54.8995L92.1655 52.1325C92.4231 52.023 93.9899 51.9136 94.2955 51.7915C94.7329 51.6178 95.1698 51.4473 95.6072 51.2561L96.2514 50.9607C96.4791 50.8537 96.6813 50.7593 96.9263 50.6316L97.1583 50.5122L97.3054 50.283C97.386 50.1581 97.4313 50.0868 97.4796 49.9924L97.6212 49.735C97.7195 49.5594 97.8029 49.3885 97.8812 49.2156C98.0416 48.872 98.1917 48.5235 98.3311 48.1707C98.5958 47.4767 98.8294 46.7711 99.0312 46.056C99.415 44.6217 99.6931 43.1771 99.8398 41.7171C100.001 40.2598 100.037 38.7875 99.9637 37.3171V37.3171ZM33.0146 55.1695C33.0775 55.1259 35.7134 53.3836 40.0168 51.2613C44.7069 50.9029 49.4088 50.7235 54.1124 50.7236C55.3454 50.7236 56.5555 50.7414 57.7507 50.7621C56.917 51.4397 56.0376 52.079 55.1228 52.6321L52.083 54.4867C50.1649 54.7211 48.5025 55.2025 48.4112 55.2282C48.3554 55.2438 48.302 55.2669 48.2523 55.2968C48.1029 55.3837 47.9892 55.526 47.9389 55.6946L44.8307 66.0156L28.2416 69.7327L23.0131 66.041L21.4919 53.6254C24.4585 53.0727 28.4308 52.4382 33.1963 51.9005C32.6742 52.5236 32.1819 53.1715 31.721 53.842L28.883 57.9493L33.0146 55.1695ZM55.4036 98.3645C52.6667 98.5481 49.8873 98.2246 47.1657 97.4727C47.393 97.4271 47.5574 97.4013 47.7595 97.3787C47.9817 97.3478 52.8664 96.7007 55.0622 93.4094L55.2695 93.4142L55.8154 93.409C56.1768 93.409 56.5052 93.3785 56.8564 93.3634C57.6902 93.2944 58.4964 93.1723 59.2976 93.0093C59.3833 93.0934 59.4643 93.1775 59.5528 93.2691C61.2027 94.9174 63.2521 95.8624 65.5033 96.0281C61.7159 97.5798 58.1503 98.1813 55.4036 98.3645V98.3645ZM55.6514 92.3265C56.0627 91.4014 56.3738 90.6805 56.6086 90.1376C57.1936 90.7955 57.7901 91.4427 58.3981 92.079C57.8593 92.1607 57.3287 92.2297 56.8057 92.273C56.4623 92.288 56.1032 92.3265 55.7748 92.3265H55.651H55.6514ZM47.5118 71.0218L48.9949 70.6856C49.1145 70.6586 49.2248 70.6 49.3145 70.5159C49.4043 70.4317 49.4701 70.3249 49.5054 70.2066L52.6037 59.9311C53.1394 59.8598 53.6094 59.8217 54.016 59.8217C54.4101 59.8217 54.888 59.8602 55.4213 59.9311L58.6101 70.5123C58.6911 70.7823 58.9208 70.9786 59.1937 71.0091L60.3764 71.144L60.6796 71.1773L81.0522 73.5137C81.2213 73.5339 81.3881 73.4855 81.5269 73.3888L83.574 71.9466L85.4665 70.6114L86.1666 70.115C86.0525 70.6067 85.9267 71.0956 85.7949 71.5774C85.6014 72.197 85.3985 72.8135 85.1861 73.4268C84.3496 75.8271 83.4123 78.0052 82.3913 79.972C82.0935 79.9918 81.7951 80.002 81.4966 80.0026C80.5059 80.0026 79.5003 79.9213 78.3857 79.8166C76.4507 79.6358 73.3853 79.2817 72.4198 79.1722C71.5781 78.4969 68.7205 76.2117 66.3473 74.3238C66.2569 74.2524 66.1759 74.1759 66.0925 74.1097C65.6756 73.7528 65.2005 73.3503 64.2377 73.3503C63.3583 73.3503 62.0797 73.6715 58.9892 74.6113C60.599 73.3991 60.6116 71.8371 60.6116 71.8371C60.6116 71.8371 58.3222 73.9875 54.6276 74.4614C50.9432 74.9404 48.0451 72.6548 48.0451 72.6548C48.1662 73.0525 48.3381 73.9514 49.1746 74.7136C48.1914 74.5986 47.1303 74.5173 46.0157 74.5173C45.6165 74.5173 45.2071 74.5276 44.8153 74.5478C42.546 74.6704 39.3525 78.125 37.1107 81.6129C36.0091 81.9646 32.5651 83.0678 28.5826 84.2475C26.2299 80.9658 24.6355 77.6356 23.7333 75.4932C23.2074 74.2449 22.9144 73.3963 22.8488 73.1952V73.1901C22.7756 72.9863 22.6969 72.7698 22.6289 72.5529L23.5842 73.2258V73.2305L25.9467 74.9019L26.7353 75.4551C26.854 75.5392 26.998 75.582 27.1345 75.582C27.1848 75.582 27.2355 75.5772 27.2886 75.5669L47.5118 71.0218V71.0218ZM60.0806 55.6946C60.0461 55.5828 59.9846 55.4815 59.9017 55.3996C59.8188 55.3178 59.717 55.2579 59.6055 55.2255C59.5021 55.1925 57.4526 54.6041 55.2769 54.4181L55.6761 54.3872C56.0199 54.3618 61.7332 53.6587 68.5588 51.2843C76.1167 51.8676 82.2875 52.803 86.5076 53.5771L85.0142 64.1404L79.7429 67.8575L63.1735 65.9593L60.0806 55.6946V55.6946ZM96.4563 41.4649C96.2714 42.8254 95.6603 45.4751 95.6603 45.4751L95.1824 45.5544C94.9323 45.4854 92.6024 44.8763 88.5896 44.1276C88.7186 44.0995 88.8425 44.0713 88.9637 44.0436C89.7963 43.8378 90.6137 43.5738 91.4099 43.2537C91.804 43.0832 92.1981 42.9019 92.5698 42.6878C92.9387 42.4713 93.3001 42.2318 93.5829 41.9082C89.565 43.233 81.2618 42.6319 73.8805 41.8626C67.1359 41.1592 60.3661 40.7059 53.5638 40.6905C46.7637 40.7059 40.0018 41.1619 33.2498 41.8626C25.8685 42.6319 17.5676 43.233 13.5497 41.9082C13.8329 42.2294 14.1963 42.4713 14.568 42.6878C14.9369 42.9019 15.3286 43.0804 15.7227 43.2537C16.52 43.5731 17.3382 43.837 18.1713 44.0436C18.4643 44.1122 18.7628 44.1784 19.0609 44.2319C15.3994 44.9326 13.2795 45.4881 13.0416 45.5544C13.0416 45.5544 12.1976 45.692 12.0131 45.0397C11.647 43.7351 11.4016 42.823 11.2171 41.4649C11.0408 40.1102 10.9564 38.7449 10.9646 37.3786C10.967 37.1542 10.9619 36.7057 10.9619 36.7057C10.9744 36.2473 10.9949 35.7885 11.0378 35.3297C11.0629 34.9911 12.2987 33.9061 13.3602 33.2891C14.5074 32.6166 15.7128 32.0103 16.9407 31.4472C18.156 30.8663 22.0956 30.0229 24.4711 29.5899C26.8466 29.1517 35.3417 28.0156 35.9788 27.7757C36.6132 27.5314 40.2846 24.6776 40.9265 24.4408C39.5775 24.6649 20.9334 27.5362 20.0945 27.8039C26.1465 11.8473 38.0255 4.07638 53.8367 4.07638C69.6428 4.07638 81.5245 11.4139 87.5812 27.3732C79.5864 25.2307 68.5132 24.2319 67.1638 24.0051C67.8057 24.2422 71.437 26.8177 72.1115 26.9045C77.6404 27.6282 86.3585 29.5772 86.9901 29.8294C88.2435 30.3413 89.4993 30.8687 90.7174 31.4472C91.9484 32.0103 93.1511 32.6166 94.2983 33.2891C95.3594 33.9085 96.5928 34.9911 96.6227 35.3301C96.6813 36.0129 96.7064 36.693 96.7139 37.3762C96.7241 38.7415 96.6305 40.1123 96.4563 41.4649V41.4649Z" fill="white"/>
</svg>
