<svg width="100" height="100" viewBox="0 0 100 100" fill="none" xmlns="http://www.w3.org/2000/svg">
<path d="M8.33337 20.8333H91.6667V83.3333H8.33337V20.8333ZM83.3334 75V29.1667H16.6667V75H83.3334ZM70.8334 33.3333C70.8334 35.5435 71.7114 37.6631 73.2742 39.2259C74.837 40.7887 76.9566 41.6667 79.1667 41.6667V62.5C76.9566 62.5 74.837 63.378 73.2742 64.9408C71.7114 66.5036 70.8334 68.6232 70.8334 70.8333H29.1667C29.1667 68.6232 28.2887 66.5036 26.7259 64.9408C25.1631 63.378 23.0435 62.5 20.8334 62.5V41.6667C23.0435 41.6667 25.1631 40.7887 26.7259 39.2259C28.2887 37.6631 29.1667 35.5435 29.1667 33.3333H70.8334ZM70.8334 54.1667V50C70.8334 45.4167 68.0417 41.6667 64.5834 41.6667C61.125 41.6667 58.3334 45.4167 58.3334 50V54.1667C58.3334 58.75 61.125 62.5 64.5834 62.5C68.0417 62.5 70.8334 58.75 70.8334 54.1667ZM64.5834 45.8333C65.1359 45.8333 65.6658 46.0528 66.0565 46.4435C66.4472 46.8342 66.6667 47.3641 66.6667 47.9167V56.25C66.6667 56.8025 66.4472 57.3324 66.0565 57.7231C65.6658 58.1138 65.1359 58.3333 64.5834 58.3333C64.0308 58.3333 63.5009 58.1138 63.1102 57.7231C62.7195 57.3324 62.5 56.8025 62.5 56.25V47.9167C62.5 47.3641 62.7195 46.8342 63.1102 46.4435C63.5009 46.0528 64.0308 45.8333 64.5834 45.8333ZM54.1667 54.1667V50C54.1667 45.4167 51.375 41.6667 47.9167 41.6667C44.4584 41.6667 41.6667 45.4167 41.6667 50V54.1667C41.6667 58.75 44.4584 62.5 47.9167 62.5C51.375 62.5 54.1667 58.75 54.1667 54.1667ZM47.9167 45.8333C48.4692 45.8333 48.9992 46.0528 49.3899 46.4435C49.7806 46.8342 50 47.3641 50 47.9167V56.25C50 56.8025 49.7806 57.3324 49.3899 57.7231C48.9992 58.1138 48.4692 58.3333 47.9167 58.3333C47.3642 58.3333 46.8343 58.1138 46.4436 57.7231C46.0529 57.3324 45.8334 56.8025 45.8334 56.25V47.9167C45.8334 47.3641 46.0529 46.8342 46.4436 46.4435C46.8343 46.0528 47.3642 45.8333 47.9167 45.8333ZM33.3334 62.5H37.5V41.6667H33.3334L29.1667 43.75V47.9167L33.3334 45.8333V62.5Z" fill="white"/>
</svg>
