<svg width="100" height="88" viewBox="0 0 100 88" fill="none" xmlns="http://www.w3.org/2000/svg">
<path d="M66.6667 0.99999C62.5 0.99999 59.1667 4.33332 59.1667 8.49999C59.1667 12.6667 62.5 16 66.6667 16C70.8333 16 74.1667 12.6667 74.1667 8.49999C74.1667 4.33332 70.8333 0.99999 66.6667 0.99999ZM51.6667 13.0833C49.7083 13.0833 47.9167 13.875 46.6667 15.1667L31.25 30.5417C29.9583 31.8333 29.1667 33.5 29.1667 35.5833C29.1667 38.2083 30.5417 40.4167 32.7083 41.7083L46.6667 50.1667V71H54.1667V43.9167L44.7917 37.0417L54.4583 27.25L61.6667 37.6667H79.1667V30.1667H65.8333L57.75 16.5417C56.5417 14.4583 54.1667 13.0833 51.6667 13.0833V13.0833ZM41.6667 8.49999H12.5C10.2083 8.49999 8.33333 6.62499 8.33333 4.33332C8.33333 2.04166 10.2083 0.166656 12.5 0.166656H53.2917C52.4167 1.58332 51.7083 3.12499 51.3333 4.79166C47.75 4.87499 44.375 6.20832 41.6667 8.49999V8.49999ZM20.8333 46C9.33333 46 0 55.3333 0 66.8333C0 78.3333 9.33333 87.6667 20.8333 87.6667C32.3333 87.6667 41.6667 78.3333 41.6667 66.8333C41.6667 55.3333 32.3333 46 20.8333 46ZM20.8333 81.4167C12.7917 81.4167 6.25 74.875 6.25 66.8333C6.25 58.7917 12.7917 52.25 20.8333 52.25C28.875 52.25 35.4167 58.7917 35.4167 66.8333C35.4167 74.875 28.875 81.4167 20.8333 81.4167ZM79.1667 46C67.6667 46 58.3333 55.3333 58.3333 66.8333C58.3333 78.3333 67.6667 87.6667 79.1667 87.6667C90.6667 87.6667 100 78.3333 100 66.8333C100 55.3333 90.6667 46 79.1667 46ZM79.1667 81.4167C71.125 81.4167 64.5833 74.875 64.5833 66.8333C64.5833 58.7917 71.125 52.25 79.1667 52.25C87.2083 52.25 93.75 58.7917 93.75 66.8333C93.75 74.875 87.2083 81.4167 79.1667 81.4167ZM22.1667 41.8333H4.16667C1.86667 41.8333 0 39.9583 0 37.6667C0 35.375 1.86667 33.5 4.16667 33.5H21.0417C20.9583 34.1667 20.8333 34.875 20.8333 35.5833C20.8333 37.7917 21.3333 39.9167 22.1667 41.8333ZM25 25.1667H8.33333C6.04167 25.1667 4.16667 23.2917 4.16667 21C4.16667 18.7083 6.04167 16.8333 8.33333 16.8333H33.2083L25.375 24.625C25.2083 24.7917 25 25 25 25.1667Z" fill="white"/>
</svg>
