<svg width="80" height="80" viewBox="0 0 80 80" fill="none" xmlns="http://www.w3.org/2000/svg">
<path d="M70.4883 58.3496C68.0439 55.9032 65.1878 53.9066 62.0508 52.4511C66.4746 48.8671 69.2969 43.3984 69.2969 37.2656C69.2969 26.4453 60.2734 17.5683 49.4531 17.7343C38.7988 17.9003 30.2148 26.582 30.2148 37.2656C30.2148 43.3984 33.0469 48.8671 37.4609 52.4511C34.3233 53.9055 31.467 55.9023 29.0234 58.3496C23.6914 63.6914 20.6641 70.7421 20.4688 78.2617C20.4661 78.3659 20.4844 78.4696 20.5225 78.5666C20.5606 78.6637 20.6177 78.7521 20.6906 78.8268C20.7634 78.9014 20.8504 78.9607 20.9464 79.0012C21.0425 79.0417 21.1457 79.0625 21.25 79.0625H26.7188C27.1387 79.0625 27.4902 78.7304 27.5 78.3105C27.6855 72.6464 29.9805 67.3437 34.0137 63.3203C36.0775 61.2454 38.5324 59.6005 41.2362 58.4808C43.9401 57.361 46.8391 56.7887 49.7656 56.7968C55.7129 56.7968 61.3086 59.1113 65.5176 63.3203C69.541 67.3437 71.8359 72.6464 72.0313 78.3105C72.041 78.7304 72.3926 79.0625 72.8125 79.0625H78.2813C78.3855 79.0625 78.4887 79.0417 78.5848 79.0012C78.6809 78.9607 78.7679 78.9014 78.8407 78.8268C78.9135 78.7521 78.9706 78.6637 79.0087 78.5666C79.0468 78.4696 79.0651 78.3659 79.0625 78.2617C78.8672 70.7421 75.8398 63.6914 70.4883 58.3496ZM49.7656 49.7656C46.4258 49.7656 43.2813 48.4668 40.9277 46.1035C39.7466 44.9317 38.8136 43.5339 38.1844 41.9937C37.5553 40.4535 37.2428 38.8023 37.2656 37.1386C37.2949 33.9355 38.5742 30.8398 40.8105 28.5449C43.1543 26.1425 46.2891 24.8046 49.6387 24.7656C52.9492 24.7363 56.1621 26.0253 58.5254 28.3398C60.9473 30.7128 62.2754 33.8867 62.2754 37.2656C62.2754 40.6054 60.9766 43.7402 58.6133 46.1035C57.4538 47.2685 56.0749 48.192 54.5562 48.8206C53.0375 49.4492 51.4093 49.7704 49.7656 49.7656ZM25.3027 39.8437C25.2148 38.9941 25.166 38.1347 25.166 37.2656C25.166 35.7128 25.3125 34.1992 25.5859 32.7246C25.6543 32.373 25.4687 32.0117 25.1465 31.8652C23.8184 31.2695 22.5977 30.4492 21.543 29.414C20.3002 28.209 19.3222 26.7582 18.6715 25.1541C18.0208 23.55 17.7116 21.8279 17.7637 20.0976C17.8516 16.9628 19.1113 13.9843 21.3086 11.7382C23.7207 9.26754 26.9629 7.91988 30.4102 7.95894C33.5254 7.98824 36.5332 9.18941 38.8086 11.3183C39.5801 12.041 40.2441 12.8418 40.8008 13.7011C40.9961 14.0039 41.377 14.1308 41.709 14.0136C43.4277 13.4179 45.2441 12.998 47.1094 12.8027C47.6562 12.7441 47.9687 12.1582 47.7246 11.6699C44.5508 5.39058 38.0664 1.05464 30.5664 0.937457C19.7363 0.771441 10.7129 9.64839 10.7129 20.4589C10.7129 26.5918 13.5352 32.0605 17.959 35.6445C14.8535 37.08 11.9922 39.0625 9.51172 41.5429C4.16016 46.8847 1.13281 53.9355 0.9375 61.4648C0.934894 61.569 0.953175 61.6727 0.991268 61.7698C1.02936 61.8668 1.08649 61.9553 1.1593 62.0299C1.23211 62.1045 1.31912 62.1638 1.4152 62.2043C1.51128 62.2448 1.61449 62.2656 1.71875 62.2656H7.19727C7.61719 62.2656 7.96875 61.9335 7.97852 61.5136C8.16406 55.8496 10.459 50.5468 14.4922 46.5234C17.3633 43.6523 20.8789 41.6601 24.7168 40.6933C25.0977 40.5957 25.3516 40.2343 25.3027 39.8437V39.8437Z" fill="white"/>
</svg>
