<svg width="100" height="100" viewBox="0 0 100 100" fill="none" xmlns="http://www.w3.org/2000/svg">
<path d="M30.5002 47.4996V41.9996C30.5002 39.4996 29.5002 38.4996 27.0002 37.9996C30.0002 37.4996 31.0002 36.4996 31.0002 33.4996V27.9996C31.0002 25.9996 31.5002 25.4996 34.5002 25.4996H36.0002V22.9996H33.0002C28.5002 22.9996 26.5002 23.9996 26.5002 27.9996C26.5002 30.4996 27.0002 31.9996 27.0002 33.9996C27.0002 34.9996 26.0002 36.4996 22.5002 36.4996V39.4996C26.0002 39.4996 27.0002 40.9996 27.0002 41.9996C27.0002 43.9996 26.5002 45.4996 26.5002 47.9996C26.5002 51.9996 28.5002 52.9996 33.0002 52.9996H35.5002V49.9996H34.0002C31.5002 49.9996 30.5002 49.4996 30.5002 47.4996ZM82.5002 69.4996C78.5002 65.4996 74.0002 62.4996 69.5002 59.4996C69.0002 58.9996 64.0002 53.9996 62.0002 52.4996C74.0002 32.4996 56.5002 6.49956 33.5002 9.99956C11.5002 13.4996 2.00015 40.9996 17.5002 56.9996C26.0002 66.4996 40.5002 68.4996 52.0002 62.4996C55.0002 65.4996 57.5002 67.9996 60.0002 70.9996C63.5002 75.4996 66.0002 79.9996 70.5002 83.4996C73.5002 85.9996 77.5002 89.4996 82.0002 89.9996C87.5002 90.4996 90.5002 86.9996 90.5002 81.9996C90.0002 77.4996 85.5002 72.4996 82.5002 69.4996V69.4996ZM38.0002 57.9996C27.0002 57.9996 18.0002 48.9996 18.0002 37.9996C18.0002 26.9996 27.0002 17.9996 38.0002 17.9996C49.0002 17.9996 58.0002 26.9996 58.0002 37.9996C58.0002 48.9996 49.0002 57.9996 38.0002 57.9996ZM48.5002 33.9996C48.5002 31.9996 49.0002 30.4996 49.0002 27.9996C49.0002 23.9996 47.0002 22.9996 42.5002 22.9996H40.0002V25.4996H41.5002C44.0002 25.4996 45.0002 25.9996 45.0002 27.9996V33.4996C45.0002 35.9996 46.0002 36.9996 48.5002 37.4996C45.5002 38.4996 44.5002 39.4996 44.5002 41.9996V47.4996C45.0002 49.4996 44.0002 49.9996 41.5002 49.9996H40.0002V52.9996H42.5002C47.0002 52.9996 49.0002 51.9996 49.0002 47.9996C49.0002 45.4996 48.5002 43.9996 48.5002 41.9996C48.5002 40.9996 49.5002 39.4996 53.0002 39.4996V36.4996C49.5002 36.4996 48.5002 34.9996 48.5002 33.9996V33.9996Z" fill="white"/>
</svg>
