<svg width="100" height="100" viewBox="0 0 100 100" fill="none" xmlns="http://www.w3.org/2000/svg">
<path d="M90 65H95C97.75 65 100 67.25 100 70.05V84.95C100 87.75 97.75 90 95 90H75C72.25 90 70 87.75 70 84.95V70.05C70 67.25 72.25 65 75 65H80V55H55V65H60C62.75 65 65 67.25 65 70.05V84.95C65 87.75 62.75 90 60 90H40C37.25 90 35 87.75 35 84.95V70.05C35 67.25 37.25 65 40 65H45V55H20V65H25C27.75 65 30 67.25 30 70.05V84.95C30 87.75 27.75 90 25 90H5C2.25 90 0 87.75 0 84.95V70.05C0 67.25 2.25 65 5 65H10V55C10 49.5 14.5 45 20 45H45V35H40C37.25 35 35 32.75 35 29.95V15.05C35 12.25 37.25 10 40 10H60C62.75 10 65 12.25 65 15.05V29.95C65 32.75 62.75 35 60 35H55V45H80C85.5 45 90 49.5 90 55V65Z" fill="white"/>
</svg>
