<svg width="100" height="100" viewBox="0 0 100 100" fill="none" xmlns="http://www.w3.org/2000/svg">
<path d="M45.8333 12.5C64.25 12.5 79.1667 19.9583 79.1667 29.1667C79.1667 38.375 64.25 45.8333 45.8333 45.8333C27.4167 45.8333 12.5 38.375 12.5 29.1667C12.5 19.9583 27.4167 12.5 45.8333 12.5ZM79.1667 50.125C75.3524 50.553 71.7612 52.1408 68.8777 54.6741C65.9942 57.2074 63.9572 60.5642 63.0417 64.2917C58 65.7917 52.0833 66.6667 45.8333 66.6667C27.4167 66.6667 12.5 59.2083 12.5 50V37.5C12.5 46.7083 27.4167 54.1667 45.8333 54.1667C64.25 54.1667 79.1667 46.7083 79.1667 37.5V50.125ZM58.3333 73.7917V86.2917C54.4583 87.0833 50.25 87.5 45.8333 87.5C27.4167 87.5 12.5 80.0417 12.5 70.8333V58.3333C12.5 67.5417 27.4167 75 45.8333 75C50.25 75 54.4583 74.5833 58.3333 73.7917ZM81.25 58.3333C84.0127 58.3333 86.6622 59.4308 88.6157 61.3843C90.5692 63.3378 91.6667 65.9873 91.6667 68.75V70.8333C92.7717 70.8333 93.8315 71.2723 94.6129 72.0537C95.3943 72.8351 95.8333 73.8949 95.8333 75V91.6667C95.8333 92.7717 95.3943 93.8315 94.6129 94.6129C93.8315 95.3943 92.7717 95.8333 91.6667 95.8333H70.8333C69.7283 95.8333 68.6685 95.3943 67.887 94.6129C67.1056 93.8315 66.6667 92.7717 66.6667 91.6667V75C66.6667 73.8949 67.1056 72.8351 67.887 72.0537C68.6685 71.2723 69.7283 70.8333 70.8333 70.8333V68.75C70.8333 65.9873 71.9308 63.3378 73.8843 61.3843C75.8378 59.4308 78.4873 58.3333 81.25 58.3333ZM81.25 62.5C79.5924 62.5 78.0027 63.1585 76.8306 64.3306C75.6585 65.5027 75 67.0924 75 68.75V70.8333H87.5V68.75C87.5 67.0924 86.8415 65.5027 85.6694 64.3306C84.4973 63.1585 82.9076 62.5 81.25 62.5Z" fill="white"/>
</svg>
