<svg width="100" height="100" viewBox="0 0 100 100" fill="none" xmlns="http://www.w3.org/2000/svg">
<path fill-rule="evenodd" clip-rule="evenodd" d="M80.7564 6.05629C80.7564 0.200037 80.1877 0.193787 74.194 0.193787H32.0627C26.0752 0.193787 25.4877 0.200037 25.4877 6.05629H31.444V24.4313L12.619 88.9875C12.619 94.8563 17.4752 99.6063 23.469 99.6063H82.7752C88.7627 99.6063 93.6252 94.8563 93.6252 88.9875L74.9502 24.2438L74.8627 6.05629H80.7564V6.05629ZM87.3065 85.0375C89.0002 90.5625 86.0377 94.0063 78.3565 94.0063H28.5127C19.7565 94.0063 17.6065 90.3 19.5627 85.0375L36.9752 24.7125L36.9065 5.88129H68.9377V24.5625L87.3065 85.0375V85.0375Z" fill="blue"/>
<path fill-rule="evenodd" clip-rule="evenodd" d="M62.7437 37.6938H43.8687L32.3812 77.1188C30.1625 84.3063 30.8812 87.0188 41.1812 87.0188H65.4249C75.6312 87.0188 75.8624 83.7813 74.2312 77.1188L62.7437 37.6938V37.6938Z" fill="blue"/>
</svg>
