<svg width="100" height="100" viewBox="0 0 100 100" fill="none" xmlns="http://www.w3.org/2000/svg">
<g clip-path="url(#clip0)">
<path d="M49.9667 8.19166C48.1583 8.19166 46.3417 8.55 44.6333 9.2625L7.4125 24.6542C5.31667 25.5208 5.37083 28.4375 7.4625 29.3042L44.8875 44.1292C48.1662 45.4583 51.8337 45.4583 55.1125 44.1292L92.5375 29.3042C94.6333 28.4875 94.6333 25.5208 92.5875 24.6542L55.2667 9.2625C53.5898 8.55343 51.7873 8.18925 49.9667 8.19166V8.19166ZM97.5 33.5667C97.1824 33.5687 96.8683 33.6324 96.575 33.7542L54.8583 49.9083C54.3916 50.0995 53.992 50.4249 53.7102 50.8432C53.4284 51.2615 53.2769 51.7539 53.275 52.2583V89.325C53.2789 89.7308 53.3816 90.1295 53.5741 90.4868C53.7666 90.844 54.0432 91.149 54.38 91.3755C54.7168 91.6019 55.1036 91.7429 55.5071 91.7864C55.9106 91.8299 56.3186 91.7745 56.6958 91.625L98.4167 75.4167C98.8844 75.2429 99.2873 74.9294 99.5706 74.5186C99.8539 74.1078 100.004 73.6198 100 73.1208V36.0542C99.9956 35.394 99.7303 34.7624 99.2619 34.2972C98.7935 33.8319 98.1602 33.5708 97.5 33.5708V33.5667ZM2.81667 33.7292C2.44672 33.716 2.07806 33.7796 1.73387 33.9158C1.38968 34.0521 1.0774 34.2581 0.816667 34.5208C0.358333 34.9833 0 35.5417 0 36.2083V71.0208C0 72.8625 2.14583 74.0917 3.78333 73.2708L29.9083 60.7458L31.1875 60.1333L43.5583 54.15C45.5 53.2333 45.35 50.3667 43.3042 49.6L3.67917 33.9083C3.40563 33.7939 3.11309 33.7317 2.81667 33.725V33.7292Z" fill="white"/>
</g>
<defs>
<clipPath id="clip0">
<rect width="100" height="100" fill="white"/>
</clipPath>
</defs>
</svg>
