<svg width="100" height="100" viewBox="0 0 100 100" fill="none" xmlns="http://www.w3.org/2000/svg">
<path d="M62.5488 100C55.7454 100 49.4629 98.3236 43.7012 94.9707C37.9395 91.6178 33.3984 87.0768 30.0781 81.3477C26.7578 75.6185 25.0977 69.3359 25.0977 62.5C25.0977 57.1615 26.237 51.9857 28.5156 46.9727H21.9727V31.3477H15.918L12.5977 27.9297V21.9727H6.64063L6.34766 21.6797V15.7227H0.78125C0.260417 14.681 0.0651042 13.6068 0.195313 12.5H0V0H12.5V0.195312C14.3229 0 15.8529 0.488281 17.0898 1.66016L44.8242 29.4922C50.3581 26.5625 56.25 25.0977 62.5 25.0977C69.3359 25.0977 75.6185 26.7578 81.3477 30.0781C87.0768 33.3984 91.6178 37.9395 94.9707 43.7012C98.3236 49.4629 100 55.7454 100 62.5488C100 69.3522 98.3236 75.6185 94.9707 81.3477C91.6178 87.0768 87.0768 91.6178 81.3477 94.9707C75.6185 98.3236 69.3522 100 62.5488 100ZM9.57031 3.22266L6.34766 6.44531L37.5 37.5977L40.7227 34.375L9.57031 3.22266ZM68.75 56.25C65.2995 56.25 62.3535 57.4707 59.9121 59.9121C57.4707 62.3535 56.25 65.2995 56.25 68.75C56.25 72.2005 57.4707 75.1465 59.9121 77.5879C62.3535 80.0293 65.2995 81.25 68.75 81.25C72.2005 81.25 75.1465 80.0293 77.5879 77.5879C80.0293 75.1465 81.25 72.2005 81.25 68.75C81.25 65.2995 80.0293 62.3535 77.5879 59.9121C75.1465 57.4707 72.2005 56.25 68.75 56.25Z" fill="white"/>
</svg>
