<svg width="100" height="29" viewBox="0 0 100 29" fill="none" xmlns="http://www.w3.org/2000/svg">
<path d="M0.650781 22.505V11.4147H14.5461V10.766H0.650781V0.64851H15.4246V0H0V23.1535H15.5547V22.505H0.650977H0.650781ZM28.0834 6.48549L22.3236 14.0413L16.6938 6.48568H15.8477L21.933 14.5278L15.2617 23.1533H16.0428L22.3232 15.0138L28.6363 23.1533H29.4498L22.7463 14.5274L28.8641 6.48529H28.0832L28.0834 6.48549ZM31.4025 28.8608V18.4841H31.4676C31.8582 19.9973 32.6283 21.2134 33.7781 22.1323C34.9279 23.0509 36.3922 23.5104 38.1711 23.5104C39.3209 23.5104 40.3406 23.278 41.2301 22.8133C42.1195 22.3485 42.8625 21.7161 43.4592 20.9162C44.0557 20.1163 44.5113 19.1867 44.826 18.1273C45.1404 17.0682 45.2979 15.9547 45.2979 14.7875C45.2979 13.5335 45.135 12.3768 44.8096 11.3176C44.4842 10.2582 44.0123 9.33936 43.3941 8.56123C42.7758 7.7829 42.0273 7.1774 41.1486 6.74532C40.2701 6.31285 39.2775 6.09662 38.1711 6.09662C37.325 6.09662 36.5387 6.22099 35.8119 6.46953C35.0852 6.71827 34.4398 7.06938 33.8758 7.52346C33.3084 7.98102 32.8146 8.52231 32.4113 9.12858C31.9992 9.74478 31.6846 10.4203 31.4676 11.1555H31.4025V6.48549H30.7518V28.8608H31.4025V28.8608ZM38.1711 22.894C36.132 22.894 34.4939 22.1969 33.2574 20.8025C32.0209 19.4082 31.4025 17.4029 31.4025 14.7871C31.4025 13.7061 31.5545 12.6792 31.8582 11.7065C32.1619 10.7337 32.6012 9.87966 33.176 9.14473C33.751 8.40961 34.4615 7.82591 35.3074 7.39364C36.1535 6.96117 37.1082 6.74493 38.1711 6.74493C39.2559 6.74493 40.2051 6.96117 41.0186 7.39364C41.832 7.82591 42.5047 8.41506 43.0361 9.16089C43.5676 9.90671 43.9689 10.7608 44.2402 11.7226C44.5113 12.6847 44.6469 13.7061 44.6469 14.7871C44.6469 15.76 44.5223 16.7275 44.2727 17.6894C44.0232 18.6515 43.6381 19.5162 43.1174 20.2838C42.5969 21.0511 41.9299 21.678 41.1162 22.1646C40.3025 22.6509 39.3209 22.894 38.1711 22.894V22.894ZM48.8773 23.1535V13.717C48.8773 12.809 49.0074 11.9225 49.268 11.058C49.5281 10.1932 49.9295 9.43103 50.4719 8.77182C51.0143 8.11241 51.7029 7.59352 52.5383 7.21516C53.3734 6.8368 54.366 6.68012 55.5158 6.74493V6.09642C54.5178 6.07501 53.6447 6.18284 52.8963 6.42068C52.1477 6.65852 51.5023 6.98277 50.96 7.39364C50.4176 7.80431 49.9838 8.28524 49.6584 8.83663C49.3333 9.38714 49.0919 9.98272 48.9424 10.6039H48.8773V6.48549H48.2266V23.1537H48.8773V23.1535ZM56.3293 14.9492H70.3221C70.3656 13.8034 70.2518 12.701 69.9805 11.6417C69.7094 10.5823 69.2754 9.64182 68.6789 8.82048C68.0822 7.99894 67.3121 7.33953 66.3684 6.84225C65.4246 6.34497 64.302 6.09642 63.0004 6.09642C62.0674 6.09642 61.1563 6.29105 60.2668 6.68032C59.3773 7.06938 58.5963 7.63673 57.9238 8.38256C57.2514 9.12838 56.709 10.0418 56.2969 11.123C55.8848 12.2037 55.6785 13.436 55.6785 14.8196C55.6785 16.0518 55.8195 17.203 56.1016 18.2731C56.3836 19.3432 56.8174 20.2729 57.4031 21.062C57.9891 21.851 58.743 22.4618 59.6648 22.894C60.5867 23.3265 61.6986 23.5318 63.0004 23.5102C64.9094 23.5102 66.5148 22.975 67.8164 21.9051C69.1182 20.8348 69.8883 19.327 70.127 17.3813H69.4762C69.1941 19.219 68.4727 20.5972 67.3121 21.5159C66.1514 22.4347 64.6926 22.894 62.9352 22.894C61.742 22.894 60.7332 22.6887 59.9088 22.278C59.0846 21.8674 58.4119 21.3051 57.8912 20.5918C57.3707 19.8782 56.9855 19.0405 56.7361 18.0785C56.4865 17.1166 56.351 16.0734 56.3293 14.9492ZM69.6713 14.3007H56.3295C56.3943 13.1333 56.6113 12.0848 56.9801 11.1553C57.349 10.2255 57.8316 9.43103 58.4283 8.77182C59.0248 8.11241 59.7191 7.60987 60.5109 7.26382C61.3027 6.91796 62.1543 6.74493 63.0654 6.74493C64.1502 6.74493 65.1045 6.94501 65.9291 7.34498C66.7533 7.74495 67.4422 8.29089 67.9955 8.9826C68.5486 9.67432 68.9662 10.4797 69.2482 11.3984C69.5303 12.3172 69.6713 13.2847 69.6713 14.3007ZM83.827 11.4147H84.4777C84.4777 9.5554 83.9354 8.20427 82.8508 7.36113C81.7658 6.51799 80.2906 6.09642 78.425 6.09642C77.3836 6.09642 76.5051 6.22624 75.7891 6.48568C75.0732 6.74493 74.4875 7.08009 74.0318 7.49076C73.5764 7.90143 73.251 8.3555 73.0557 8.85278C72.8604 9.35007 72.7627 9.82574 72.7627 10.2796C72.7627 11.1876 72.9254 11.9118 73.251 12.4523C73.5764 12.9928 74.0861 13.4143 74.7803 13.717C75.2576 13.933 75.7998 14.1277 76.4074 14.3009C77.0148 14.4737 77.7199 14.6575 78.5227 14.8519C79.2385 15.0251 79.9436 15.1979 80.6379 15.3708C81.332 15.5438 81.9449 15.7762 82.4764 16.0679C83.008 16.3599 83.4418 16.7328 83.7781 17.1869C84.1143 17.6408 84.2824 18.2354 84.2824 18.9703C84.2824 19.6838 84.1145 20.2891 83.7781 20.7862C83.4447 21.2809 83.0058 21.6962 82.4928 22.0024C81.9721 22.3158 81.3916 22.5427 80.7518 22.6833C80.1117 22.8238 79.4881 22.894 78.8807 22.894C76.9064 22.894 75.3932 22.4563 74.341 21.5809C73.2889 20.7052 72.7629 19.327 72.7629 17.4461H72.1119C72.1119 19.5433 72.6814 21.0781 73.8203 22.0511C74.9594 23.0239 76.6461 23.5102 78.8807 23.5102C79.5965 23.5102 80.3178 23.4291 81.0447 23.267C81.7713 23.1048 82.4223 22.8401 82.9971 22.4725C83.567 22.11 84.0457 21.6219 84.3963 21.0458C84.7543 20.4619 84.9334 19.7486 84.9334 18.9055C84.9334 18.1055 84.776 17.457 84.4615 16.9597C84.1469 16.4627 83.7348 16.0518 83.2248 15.7275C82.715 15.4033 82.1402 15.1493 81.5002 14.9656C80.8566 14.7807 80.2111 14.6023 79.5639 14.4303C78.7674 14.2221 77.9701 14.0167 77.1721 13.8143C76.4889 13.6413 75.8543 13.436 75.2686 13.1981C74.7045 12.9603 74.2543 12.6199 73.918 12.1767C73.5816 11.7335 73.4137 11.1012 73.4137 10.2796C73.4137 10.1284 73.457 9.85805 73.5438 9.46899C73.6305 9.07972 73.8367 8.68521 74.1621 8.28524C74.4875 7.88547 74.9863 7.52871 75.659 7.21516C76.3314 6.9018 77.2535 6.74493 78.425 6.74493C79.2277 6.74493 79.9598 6.83154 80.6215 7.00438C81.2832 7.1774 81.8527 7.453 82.3299 7.83136C82.8072 8.20972 83.176 8.69066 83.4363 9.27436C83.6967 9.85825 83.827 10.5716 83.827 11.4147V11.4147ZM98.8936 11.4147H99.5443C99.5443 9.5554 99.0021 8.20427 97.9174 7.36113C96.8326 6.51799 95.3574 6.09642 93.4916 6.09642C92.4504 6.09642 91.5717 6.22624 90.8559 6.48568C90.1398 6.74493 89.5541 7.08009 89.0986 7.49076C88.643 7.90143 88.3176 8.3555 88.1223 8.85278C87.927 9.35007 87.8295 9.82574 87.8295 10.2796C87.8295 11.1876 87.9922 11.9118 88.3178 12.4523C88.643 12.9928 89.1529 13.4143 89.8471 13.717C90.3244 13.933 90.8666 14.1277 91.474 14.3009C92.0814 14.4737 92.7865 14.6575 93.5893 14.8519C94.3053 15.0251 95.0103 15.1979 95.7045 15.3708C96.3988 15.5438 97.0115 15.7762 97.5432 16.0679C98.0746 16.3599 98.5086 16.7328 98.8447 17.1869C99.1811 17.6408 99.3492 18.2354 99.3492 18.9703C99.3492 19.6838 99.1811 20.2891 98.8447 20.7862C98.5113 21.2809 98.0725 21.6961 97.5596 22.0024C97.0387 22.3158 96.4584 22.5427 95.8184 22.6833C95.1785 22.8238 94.5547 22.894 93.9473 22.894C91.973 22.894 90.46 22.4563 89.4078 21.5809C88.3555 20.7052 87.8295 19.327 87.8295 17.4461H87.1787C87.1787 19.5433 87.748 21.0781 88.8871 22.0511C90.026 23.0239 91.7127 23.5102 93.9473 23.5102C94.6633 23.5102 95.3846 23.4291 96.1113 23.267C96.8379 23.1048 97.4889 22.8401 98.0639 22.4725C98.6338 22.11 99.1125 21.6219 99.4631 21.0458C99.8211 20.4619 100 19.7486 100 18.9055C100 18.1055 99.8428 17.457 99.5281 16.9597C99.2137 16.4627 98.8016 16.0518 98.2916 15.7275C97.7818 15.4033 97.2068 15.1493 96.567 14.9656C95.9234 14.7807 95.2779 14.6023 94.6307 14.4303C93.8342 14.2221 93.0369 14.0167 92.2389 13.8143C91.5555 13.6413 90.9209 13.436 90.3352 13.1981C89.7711 12.9603 89.3209 12.6199 88.9848 12.1767C88.6484 11.7335 88.4803 11.1012 88.4803 10.2796C88.4803 10.1284 88.5236 9.85805 88.6105 9.46899C88.6973 9.07972 88.9035 8.68521 89.2287 8.28524C89.5541 7.88547 90.0531 7.52871 90.7256 7.21516C91.3982 6.9018 92.3201 6.74493 93.4918 6.74493C94.2945 6.74493 95.0266 6.83154 95.6883 7.00438C96.35 7.1774 96.9193 7.453 97.3967 7.83136C97.874 8.20972 98.2428 8.69066 98.5031 9.27436C98.7635 9.85825 98.8937 10.5716 98.8937 11.4147H98.8936Z" fill="white"/>
</svg>
