<svg width="100" height="24" viewBox="0 0 100 24" fill="none" xmlns="http://www.w3.org/2000/svg">
<g clip-path="url(#clip0)">
<path d="M36.8032 -1.71791e-05C40.2795 -0.0149204 43.8446 0.973531 46.5465 3.20069C47.9311 4.31127 49.0494 5.70463 49.9992 7.18818C51.7082 4.45063 54.2045 2.12456 57.2828 1.00334C61.034 -0.392146 65.274 -0.295759 69.0188 1.07205C72.2897 2.2554 75.1496 4.31766 77.7434 6.58566C79.7725 8.3607 81.6502 10.303 83.7399 12.0116C84.841 12.8969 86.0242 13.7264 87.3785 14.1851C89.1783 14.7941 91.3071 14.2196 92.5942 12.8454C93.7862 11.5593 93.7125 9.33618 92.3994 8.16153C91.5645 7.44753 90.1367 7.59115 89.5459 8.54282C89.0291 9.29766 89.319 10.2387 89.7237 10.9697C88.6483 10.1917 87.5711 9.10682 87.5752 7.69199C87.3526 6.05631 88.577 4.6134 90.0436 4.04108C92.9057 2.90689 96.4946 3.88469 98.301 6.38205C100.038 8.71237 100.176 11.7757 99.8737 14.5517C99.508 17.1886 98.0197 19.6498 95.8131 21.1761C92.7155 23.3671 88.7889 24.0464 85.053 23.9994C81.4619 23.9028 77.9076 23.099 74.5805 21.7697C69.0166 19.5532 63.8096 16.4897 58.0639 14.7191C56.158 13.986 54.1311 13.5894 52.0932 13.4671C50.4707 13.4564 48.9326 13.3813 47.401 13.4843C45.5319 13.6624 43.6737 14.0417 41.9237 14.7211C36.0807 16.5221 30.7957 19.6626 25.1258 21.8835C20.3383 23.7292 15.034 24.5868 9.95256 23.562C7.10999 22.9918 4.2803 21.7463 2.36155 19.5275C0.719556 17.641 -0.0677484 15.1157 0.00979062 12.6418C-0.0810297 10.3072 0.435962 7.82689 1.99358 6.00889C3.4428 4.28553 5.77717 3.41089 8.01838 3.60385C9.46116 3.67024 10.9237 4.29405 11.8149 5.44527C12.5158 6.35631 12.559 7.60411 12.2518 8.6694C11.8776 9.62766 11.1053 10.3759 10.266 10.9504C10.6944 10.2342 10.9539 9.28895 10.4477 8.54069C9.82463 7.54392 8.29085 7.44328 7.47971 8.26199C6.4803 9.28044 6.27034 10.944 6.94104 12.1916C7.6678 13.4994 9.17151 14.2453 10.6272 14.3975C12.8295 14.5862 14.7397 13.2335 16.3557 11.9216C19.7 9.06811 22.7112 5.80334 26.4213 3.3894C29.4803 1.35714 33.0842 -0.0170494 36.803 0.000176369L36.8032 -1.71791e-05Z" fill="white"/>
</g>
<defs>
<clipPath id="clip0">
<rect width="100" height="24" fill="white"/>
</clipPath>
</defs>
</svg>
