<svg width="100" height="100" viewBox="0 0 100 100" fill="none" xmlns="http://www.w3.org/2000/svg">
<g clip-path="url(#clip0)">
<path d="M49.9918 100C48.6543 100 47.321 99.6503 46.1501 98.9712L33.9168 91.7337C32.0918 90.7128 32.9835 90.3503 33.5835 90.1378C36.021 89.292 36.5126 89.0962 39.1168 87.6212C39.3876 87.467 39.746 87.5253 40.0251 87.692L49.4251 93.2712C49.5996 93.3638 49.7942 93.4123 49.9918 93.4123C50.1894 93.4123 50.3839 93.3638 50.5585 93.2712L87.2043 72.1212C87.3751 72.0182 87.5163 71.8727 87.6142 71.6989C87.712 71.5251 87.7632 71.3289 87.7626 71.1295V28.8378C87.7623 28.6348 87.7096 28.4354 87.6096 28.2587C87.5096 28.0821 87.3657 27.9342 87.1918 27.8295L50.5626 6.69618C50.39 6.59984 50.1957 6.54927 49.998 6.54927C49.8004 6.54927 49.606 6.59984 49.4335 6.69618L12.8126 27.8337C12.638 27.9373 12.4931 28.0841 12.3916 28.26C12.2902 28.4358 12.2357 28.6348 12.2334 28.8378V71.1295C12.2343 71.3295 12.2883 71.5256 12.3901 71.6977C12.4919 71.8698 12.6378 72.0117 12.8126 72.1087L22.8501 77.9087C28.296 80.6337 31.6335 77.4253 31.6335 74.2003V32.4462C31.6335 31.8545 32.1085 31.392 32.7001 31.392H37.346C37.9251 31.392 38.4085 31.8587 38.4085 32.4462V74.2003C38.4085 81.4712 34.4501 85.6378 27.5584 85.6378C25.4418 85.6378 23.7709 85.6378 19.1168 83.342L9.50011 77.8128C8.33119 77.1321 7.36127 76.1567 6.68716 74.984C6.01306 73.8112 5.65835 72.4822 5.65845 71.1295V28.8378C5.65845 26.092 7.12928 23.5253 9.50011 22.1587L46.146 0.983677C47.3264 0.337793 48.6504 -0.000732422 49.9959 -0.000732422C51.3415 -0.000732422 52.6655 0.337793 53.846 0.983677L90.4876 22.1587C92.8626 23.5295 94.3376 26.092 94.3376 28.8378V71.1295C94.3352 72.4827 93.9785 73.8116 93.3031 74.9841C92.6276 76.1567 91.657 77.1319 90.4876 77.8128L53.846 98.9712C52.6793 99.6503 51.3501 100 49.9918 100V100ZM79.5793 58.3045C79.5793 50.3878 74.2293 48.2795 62.9668 46.792C51.5876 45.2878 50.4293 44.5087 50.4293 41.8462C50.4293 39.6462 51.4085 36.7087 59.8376 36.7087C67.3668 36.7087 70.1418 38.3295 71.2835 43.4045C71.3355 43.639 71.4657 43.8488 71.6527 43.9995C71.8397 44.1502 72.0724 44.2328 72.3126 44.2337H77.0668C77.212 44.2322 77.3554 44.2016 77.4886 44.1436C77.6217 44.0857 77.7418 44.0015 77.8418 43.8962C77.9424 43.7869 78.0192 43.6578 78.0673 43.5172C78.1153 43.3766 78.1336 43.2276 78.121 43.0795C77.3835 34.3378 71.5751 30.2628 59.8376 30.2628C49.3876 30.2628 43.1543 34.6712 43.1543 42.067C43.1543 50.0878 49.3543 52.3045 59.3835 53.2962C71.3835 54.4712 72.3126 56.2253 72.3126 58.5837C72.3126 62.6795 69.0251 64.4253 61.3043 64.4253C51.6085 64.4253 49.4751 61.992 48.7584 57.167C48.7187 56.9164 48.5905 56.6883 48.3971 56.524C48.2038 56.3597 47.958 56.27 47.7043 56.2712H42.9668C42.8278 56.2701 42.6901 56.2966 42.5614 56.3491C42.4328 56.4016 42.3159 56.4792 42.2174 56.5772C42.119 56.6753 42.041 56.7919 41.988 56.9203C41.9349 57.0487 41.9079 57.1864 41.9084 57.3253C41.9084 63.5003 45.2668 70.8587 61.3043 70.8587C72.921 70.8628 79.5793 66.292 79.5793 58.3045V58.3045Z" fill="blue"/>
</g>
<defs>
<clipPath id="clip0">
<rect width="100" height="100" fill="blue"/>
</clipPath>
</defs>
</svg>
