<svg width="100" height="100" viewBox="0 0 100 100" fill="none" xmlns="http://www.w3.org/2000/svg">
<path d="M71.3719 0C67.483 0.0295903 63.6167 0.593191 59.8813 1.675L59.6219 1.75938C57.2717 1.3522 54.8941 1.12342 52.5094 1.075C47.5937 0.990625 43.375 2.17813 39.975 4.16563C36.6219 3.0125 29.6719 0.990625 22.3469 1.4C17.2563 1.675 11.6875 3.22188 7.55 7.58438C3.45 11.9313 1.27188 18.6688 1.725 27.85C1.85313 30.3719 2.57188 34.4875 3.775 39.8406C4.9625 45.1813 6.64063 51.4313 8.74063 57.1438C10.8406 62.8406 13.1313 67.9656 16.7156 71.4469C18.5031 73.1875 20.9781 74.6719 23.8906 74.5438C25.9281 74.4594 27.7656 73.5656 29.3625 72.2469C30.1406 73.2719 30.975 73.7094 31.7219 74.1188C32.6844 74.6406 33.5937 74.9969 34.5562 75.2281C36.2812 75.6656 39.2281 76.2375 42.6781 75.65C43.9344 75.4239 45.1589 75.0473 46.325 74.5281L46.4719 78.6125C46.65 82.925 46.7688 86.9125 48.05 90.4125C48.2625 90.9844 48.8344 93.9125 51.0781 96.5156C53.3406 99.1188 57.7312 100.731 62.7625 99.6563C66.2969 98.9063 70.8031 97.5406 73.8 93.2781C76.7625 89.0781 78.0969 83.0406 78.3594 73.2406C78.4219 72.7031 78.5062 72.2656 78.5844 71.8406L79.2844 71.9063H79.3688C83.1438 72.0688 87.2469 71.5313 90.6812 69.9344C93.7062 68.5344 96.0031 67.1188 97.6781 64.5969C98.0875 63.975 98.5563 63.2125 98.675 61.9094C98.8031 60.625 98.0531 58.5875 96.8156 57.6469C94.3438 55.7594 92.7812 56.475 91.1031 56.8344C89.4596 57.1885 87.7868 57.3893 86.1063 57.4344C90.9219 49.3313 94.3719 40.7063 96.3438 33.0844C97.5156 28.575 98.1688 24.425 98.2156 20.7969C98.2813 17.1688 97.975 13.9625 95.8063 11.1813C89.0031 2.50625 79.4469 0.09375 72.0594 0.015625H71.375L71.3719 0ZM71.175 2.67188C78.1594 2.60625 87.0906 4.55938 93.5031 12.7594C94.9531 14.6 95.3781 17.2844 95.3281 20.6063C95.2781 23.9281 94.6625 27.8813 93.5375 32.2281C91.375 40.6625 87.2531 50.4563 81.4781 59.2656C81.6768 59.4154 81.8956 59.5364 82.1281 59.625C83.3313 60.1281 86.0812 60.55 91.5812 59.4281C92.9656 59.1313 93.9781 58.9406 95.0344 59.7375C95.2907 59.9537 95.4932 60.2267 95.6255 60.5348C95.7579 60.843 95.8166 61.1777 95.7969 61.5125C95.74 62.02 95.5491 62.5032 95.2438 62.9125C94.1844 64.5031 92.0906 66.0219 89.4031 67.275C87.0281 68.3781 83.6062 68.95 80.6 68.9844C79.0719 69 77.6719 68.8844 76.4781 68.5094L76.4156 68.4969C75.9562 72.9063 74.9031 81.6313 74.2156 85.6C73.6656 88.8031 72.7031 91.3625 70.8656 93.2656C69.025 95.1875 66.4375 96.325 62.9375 97.075C58.6094 98.0031 55.4656 97.0094 53.4344 95.3C51.4031 93.5906 50.4719 91.3125 49.9188 89.9281C49.5313 88.9688 49.3344 87.7313 49.1406 86.0688C48.9279 84.0838 48.7862 82.0919 48.7156 80.0969C48.5875 76.5969 48.5375 73.0969 48.5875 69.5813C46.7819 71.2367 44.5388 72.3388 42.125 72.7563C39.2469 73.2438 36.6906 72.7563 35.1625 72.3813C34.4086 72.189 33.6812 71.9045 32.9969 71.5344C32.2813 71.1594 31.6125 70.7375 31.1594 69.8875C30.8983 69.4007 30.8175 68.8374 30.9312 68.2969C31.0663 67.7478 31.3823 67.2602 31.8281 66.9125C32.6563 66.2406 33.75 65.8719 35.3906 65.5281C38.3875 64.9063 39.4437 64.4875 40.0781 63.9781C40.6156 63.5563 41.2375 62.6781 42.3063 61.3906C42.3063 61.3438 42.3063 61.2781 42.2906 61.2281C40.3541 61.1692 38.4585 60.6565 36.7563 59.7313C36.1406 60.3813 32.9312 63.7688 29.0437 68.4563C27.4156 70.4063 25.6094 71.5313 23.6906 71.6156C21.7875 71.6938 20.0562 70.7375 18.5937 69.3188C15.6656 66.4688 13.3188 61.5688 11.2844 56.0344C9.25 50.5 7.60625 44.3344 6.41875 39.0938C5.24688 33.8344 4.54688 29.6031 4.44688 27.5688C4.00938 18.8937 6.04375 13.0531 9.525 9.35625C13.0063 5.65938 17.7781 4.27813 22.4344 4.00313C30.7844 3.53125 38.725 6.44375 40.3219 7.0625C43.4125 4.9625 47.4 3.6625 52.3812 3.74063C54.7419 3.77534 57.0906 4.08152 59.3813 4.65313L59.4656 4.60313C60.4734 4.25409 61.5 3.96196 62.5406 3.72813C65.3689 3.06439 68.2608 2.70919 71.1656 2.66875L71.175 2.67188ZM71.8094 5.45313H71.1937C68.8187 5.48125 66.4219 5.7625 64.0969 6.26563C69.2875 8.5625 73.2094 12.0906 75.975 15.6406C77.8969 18.0813 79.475 20.7656 80.6781 23.6313C81.1531 24.7406 81.4625 25.6656 81.625 26.3813C81.7219 26.7406 81.7719 27.0469 81.8031 27.3563C81.8031 27.5188 81.8188 27.6844 81.7375 27.9594C81.7375 27.975 81.7219 28.0094 81.7219 28.025C81.8562 31.6719 80.9438 34.1406 80.825 37.625C80.7469 40.15 81.3969 43.1125 81.5594 46.35C81.7063 49.3906 81.3344 52.7281 79.3625 56.0156C79.525 56.2125 79.6719 56.4063 79.8344 56.6188C85.0594 48.3813 88.8344 39.2844 90.8375 31.5188C91.9125 27.3344 92.4781 23.5438 92.5281 20.5531C92.5781 17.5563 92.025 15.375 91.3063 14.4656C85.7063 7.31875 78.1406 5.49375 71.8063 5.45L71.8094 5.45313ZM51.8375 6.525C46.925 6.54063 43.3906 8.025 40.7094 10.2531C37.9375 12.5656 36.0844 15.7063 34.8812 18.9438C33.4312 22.7688 32.9281 26.4781 32.7313 29.0031L32.7969 28.9688C34.5319 27.9972 36.3949 27.2745 38.3312 26.8219C40.4156 26.3313 42.6781 26.1844 44.7094 26.9844C46.7625 27.7625 48.4375 29.6344 49.0563 32.45C51.9906 46.025 48.1469 51.0719 46.7313 54.8781C46.1938 56.2625 45.7219 57.6625 45.3469 59.0938C45.525 59.0594 45.7062 59.0094 45.8844 58.9938C46.8937 58.9156 47.6719 59.2406 48.1313 59.4344C49.5656 60.0344 50.5406 61.2719 51.0781 62.6875C51.2101 63.0739 51.3073 63.4713 51.3687 63.875C51.4226 64.0438 51.451 64.2197 51.4531 64.3969C51.2891 69.5875 51.3047 74.7823 51.5 79.9719C51.6 82.2188 51.7469 84.1875 51.925 85.75C52.1031 87.2969 52.3469 88.4844 52.5125 88.8906C53.0469 90.225 53.8281 91.9656 55.2469 93.1531C56.6469 94.3438 58.6625 95.125 62.3594 94.3438C65.5625 93.6438 67.5344 92.6969 68.85 91.3313C70.1719 89.9469 70.95 88.0438 71.4531 85.1313C72.2187 80.7531 73.7313 68.0563 73.9125 65.6813C73.8344 63.8719 74.0906 62.4906 74.6781 61.4313C75.2625 60.3563 76.175 59.6906 76.975 59.3313C77.3625 59.1531 77.7375 59.0406 78.0469 58.9406C77.7195 58.4839 77.3829 58.0338 77.0375 57.5906C75.8969 56.2067 74.9593 54.6673 74.2531 53.0188C73.9284 52.3275 73.5696 51.6527 73.1781 50.9969C72.6281 50.0063 71.9281 48.75 71.1937 47.3344C69.7281 44.5344 68.1344 41.1188 67.3031 37.7969C66.475 34.475 66.3625 31.0438 68.4781 28.6344C70.35 26.4844 73.6531 25.5938 78.5812 26.0969C78.4344 25.6563 78.3563 25.2813 78.1094 24.7125C76.9885 22.0798 75.5271 19.6056 73.7625 17.3531C69.5781 12 62.7906 6.69063 52.3281 6.5125L51.8375 6.525ZM24.1719 6.7375C23.6454 6.73694 23.1191 6.75362 22.5938 6.7875C18.3781 7.03438 14.4063 8.25 11.5563 11.2625C8.70938 14.2906 6.84063 19.2219 7.24375 27.4094C7.32813 28.9719 7.99375 33.3 9.14688 38.4594C10.3063 43.6219 11.9469 49.6938 13.9188 55.0625C15.8844 60.4156 18.2656 65.0875 20.5437 67.3C21.6812 68.3906 22.6719 68.8469 23.5687 68.8156C24.4656 68.7656 25.5562 68.2438 26.8906 66.65C29.3122 63.7282 31.8259 60.884 34.4281 58.1219C32.5826 56.5153 31.1711 54.4702 30.3235 52.1749C29.4759 49.8796 29.2196 47.4079 29.5781 44.9875C30 41.9125 30.0656 39.0281 30 36.75C29.9531 34.5375 29.8031 33.075 29.8031 32.1469V32.0469L29.7875 32.0188C29.7875 27.2156 30.6375 22.4656 32.2625 17.9563C33.4344 14.8438 35.1625 11.7063 37.7625 9.14688C35.2094 8.3 30.6656 7.03438 25.7531 6.7875C25.2278 6.75372 24.7014 6.73704 24.175 6.7375H24.1719ZM75.8281 28.7406C73 28.7906 71.4187 29.525 70.575 30.4656C69.4 31.8188 69.2875 34.1938 70.0219 37.125C70.75 40.0531 72.2688 43.325 73.6844 46.0469C74.3844 47.4125 75.0688 48.6344 75.6188 49.625C76.1906 50.6344 76.5969 51.3344 76.8406 51.9531C77.0688 52.5063 77.3313 52.9938 77.5906 53.45C78.6813 51.1375 78.8781 48.875 78.7625 46.5C78.6156 43.5719 77.9344 40.575 78.0469 37.55C78.1625 34 78.8625 31.6875 78.9125 28.9531C77.8919 28.8182 76.8638 28.7472 75.8344 28.7406H75.8281ZM41.5219 29.2344C40.6594 29.2344 39.7969 29.3469 38.95 29.5438C37.2716 29.9474 35.6558 30.5771 34.1469 31.4156C33.6391 31.6904 33.1551 32.0072 32.7 32.3625L32.6 32.4406C32.6344 33.0625 32.7469 34.525 32.7969 36.7063C32.8469 39.0813 32.7969 42.1063 32.3438 45.3813C31.3344 52.5094 36.5094 58.4031 42.5813 58.4188C42.9406 56.9531 43.5219 55.4688 44.1094 53.9094C45.8 49.35 49.1219 46.0313 46.3219 33.0438C45.8688 30.9281 44.9563 30.0656 43.7 29.5781C43.001 29.3321 42.2627 29.2166 41.5219 29.2375V29.2344ZM74.5125 30.0781H74.725C74.9844 30.0938 75.2469 30.1125 75.4719 30.175C75.675 30.2148 75.869 30.2921 76.0437 30.4031C76.125 30.4519 76.1947 30.5176 76.2481 30.5958C76.3015 30.674 76.3373 30.7629 76.3531 30.8563V30.8906C76.3523 31.0905 76.3018 31.287 76.2062 31.4625C76.0833 31.687 75.9309 31.894 75.7531 32.0781C75.3329 32.5479 74.7633 32.8581 74.1406 32.9563C73.5382 33.0335 72.9286 32.8831 72.4312 32.5344C72.2343 32.3915 72.054 32.2269 71.8938 32.0438C71.7531 31.8958 71.6615 31.7081 71.6313 31.5063C71.6129 31.3137 71.6713 31.1216 71.7938 30.9719C71.9385 30.824 72.1037 30.6977 72.2844 30.5969C72.6875 30.3688 73.225 30.2063 73.8469 30.1219C74.0719 30.0938 74.3 30.075 74.5125 30.0594V30.0781ZM41.925 30.7781C42.1375 30.7781 42.3844 30.7938 42.6125 30.825C43.2625 30.925 43.8156 31.0875 44.2531 31.3469C44.4676 31.4514 44.6565 31.6018 44.8063 31.7875C44.9685 31.9833 45.0501 32.2336 45.0344 32.4875C44.9899 32.7281 44.882 32.9525 44.7219 33.1375C44.5505 33.3462 44.3481 33.5275 44.1219 33.675C43.5804 34.0641 42.9112 34.2327 42.25 34.1469C41.5801 34.0392 40.9665 33.7076 40.5094 33.2063C40.3174 32.9999 40.1525 32.7699 40.0187 32.5219C39.8729 32.3007 39.8098 32.0351 39.8406 31.7719C39.9062 31.3344 40.2813 31.0875 40.6406 30.9594C41.05 30.825 41.4875 30.7813 41.925 30.7969V30.7781ZM79.6719 61.375H79.6562C79.0562 61.6031 78.5531 61.6875 78.1281 61.8844C77.698 62.0466 77.3444 62.3645 77.1375 62.775C76.8594 63.25 76.65 64.0969 76.7125 65.5406C76.9005 65.6758 77.1111 65.7764 77.3344 65.8375C78.0344 66.05 79.2375 66.1969 80.5719 66.1781C83.225 66.1438 86.4969 65.5281 88.2375 64.7125C89.6601 64.0532 90.9808 63.1935 92.1594 62.1594C86.35 63.3469 83.0812 63.0375 81.0594 62.2094C80.5627 61.9945 80.097 61.7138 79.675 61.375H79.6719ZM46.2094 61.7656H46.125C45.9 61.7813 45.5875 61.8656 44.9531 62.55C43.5031 64.175 43 65.2 41.8125 66.1469C40.6094 67.1063 39.0625 67.6125 35.9531 68.2469C35.2899 68.3656 34.6442 68.5671 34.0313 68.8469C34.1438 68.9469 34.1437 68.9813 34.3219 69.0594C34.7812 69.3219 35.3625 69.5344 35.8375 69.6625C37.1719 69.9875 39.35 70.3781 41.6469 69.9875C43.925 69.5969 46.3 68.5031 48.3375 65.6594C48.6969 65.1719 48.725 64.4375 48.4344 63.6563C48.1437 62.8938 47.5063 62.2094 47.0688 62.0313C46.7949 61.9038 46.5046 61.8155 46.2063 61.7688L46.2094 61.7656Z" fill="white"/>
</svg>
