<svg width="100" height="100" viewBox="0 0 100 100" fill="none" xmlns="http://www.w3.org/2000/svg">
<path d="M50.0003 99.9449C77.5839 99.9449 99.9448 77.584 99.9448 50.0003C99.9448 22.4167 77.5839 0.0558167 50.0003 0.0558167C22.4167 0.0558167 0.0557861 22.4167 0.0557861 50.0003C0.0557861 77.584 22.4167 99.9449 50.0003 99.9449Z" fill="url(#paint0_linear)"/>
<path d="M49.9637 96.0211C75.1847 96.0211 95.6305 75.5754 95.6305 50.3543C95.6305 25.1332 75.1847 4.6875 49.9637 4.6875C24.7426 4.6875 4.29688 25.1332 4.29688 50.3543C4.29688 75.5754 24.7426 96.0211 49.9637 96.0211Z" fill="url(#paint1_linear)"/>
<path d="M39.2395 43.0067C38.7061 43.8288 38.1868 44.6599 37.6816 45.4996C37.1482 44.0362 36.6682 42.5538 36.2426 41.0555C37.6996 40.8465 39.2484 40.6817 40.8809 40.5676C40.3202 41.3714 39.773 42.1845 39.2395 43.0067V43.0067ZM79.5277 45.9266C77.9137 44.377 75.6059 42.9571 72.6692 41.7063C66.8387 39.2235 59.0293 37.6149 50.6789 37.177C49.6992 37.1252 48.7188 37.0891 47.7379 37.0688C54.1133 29.459 60.2703 25.4102 63.8563 25.2735C64.6156 25.2446 65.2531 25.3946 65.7524 25.7192C67.4305 26.8098 67.8961 30.193 66.9981 34.7684C66.9208 35.1989 67.0158 35.6425 67.2626 36.0035C67.5095 36.3646 67.8883 36.6142 68.3175 36.6984C68.7467 36.7827 69.1918 36.6949 69.5568 36.454C69.9218 36.2131 70.1775 35.8383 70.2688 35.4106C71.8129 27.5446 69.6531 24.2789 67.5692 22.9242C66.4813 22.2172 65.1891 21.8871 63.7293 21.9426C58.2137 22.152 50.4856 28.0332 43.434 37.1C40.6418 37.1965 37.9504 37.4375 35.4328 37.8137C35.1649 36.5841 34.9531 35.343 34.7981 34.0942C34.1656 28.8817 34.9414 25.1817 36.8731 24.1969C37.1832 24.0387 37.5223 23.9473 37.9098 23.9184C39.6356 23.7887 42.0707 24.9485 44.7621 27.1836C45.1027 27.4614 45.5392 27.5935 45.9767 27.551C46.4142 27.5086 46.8172 27.295 47.098 26.9569C47.3788 26.6188 47.5147 26.1834 47.476 25.7456C47.4374 25.3078 47.2275 24.9029 46.8918 24.6192C43.4348 21.7481 40.3293 20.3938 37.6602 20.5946C36.8352 20.6563 36.0606 20.8692 35.3586 21.2274C33.5645 22.1422 32.3383 23.8946 31.7141 26.4348C31.1797 28.6106 31.1039 31.3227 31.4891 34.4957C31.6414 35.7508 31.8641 37.0567 32.1512 38.4012C30.1824 38.816 28.3582 39.3215 26.7227 39.9125C19.568 42.4969 17.9164 45.9035 17.7906 48.3063C17.6703 50.6016 18.8453 54.0172 25.1246 57.2555C25.5162 57.4473 25.9674 57.478 26.3814 57.341C26.7954 57.204 27.1392 56.9102 27.3391 56.5226C27.539 56.135 27.5791 55.6846 27.4507 55.2678C27.3223 54.8511 27.0357 54.5013 26.6523 54.2934C23.0402 52.4301 21.0234 50.3117 21.1191 48.4809C21.2543 45.9008 25.5789 43.1699 32.9449 41.6313C33.6273 44.0957 34.5035 46.6551 35.5543 49.2504C32.907 54.2203 30.9754 59.1184 29.9738 63.4754C29.2578 66.5887 29.0484 69.2918 29.352 71.5094C29.7059 74.0992 30.7418 75.9695 32.4305 77.0672C33.2918 77.627 34.4523 78.0645 35.977 78.0645C38.1871 78.0645 41.1625 77.1438 45.0953 74.3387C45.2749 74.2122 45.4277 74.0514 45.545 73.8656C45.6622 73.6798 45.7416 73.4726 45.7785 73.2561C45.8154 73.0395 45.8091 72.8178 45.76 72.6036C45.7109 72.3895 45.62 72.1871 45.4924 72.0083C45.3649 71.8294 45.2032 71.6775 45.0167 71.5614C44.8303 71.4452 44.6227 71.367 44.4059 71.3314C44.1891 71.2957 43.9674 71.3033 43.7536 71.3536C43.5397 71.4039 43.3379 71.496 43.1598 71.6246C39.2828 74.3902 35.9512 75.3797 34.2473 74.2723C32.4301 73.0914 32.0469 69.334 33.2223 64.2223C34.0016 60.8324 35.3922 57.0754 37.2781 53.2028C37.6907 54.0864 38.1183 54.9629 38.5606 55.832C42.3563 63.2879 47.0027 69.775 51.6441 74.0985C53.9816 76.2754 56.2176 77.8082 58.2891 78.6543C59.5461 79.1676 60.7266 79.4242 61.8223 79.4242C62.8363 79.4242 63.7785 79.2043 64.641 78.7641C66.3715 77.8817 67.575 76.2172 68.218 73.8168C68.7688 71.761 68.8922 69.1969 68.5859 66.1949C67.9832 60.2926 65.7527 53.0938 62.3059 45.925C62.1094 45.535 61.7677 45.2378 61.3543 45.0971C60.9408 44.9564 60.4887 44.9836 60.0952 45.1728C59.7016 45.3621 59.398 45.6982 59.2497 46.1089C59.1013 46.5196 59.1201 46.9721 59.302 47.3692C62.5859 54.1992 64.7055 61.0051 65.2699 66.5332C65.766 71.3953 64.9652 74.8574 63.127 75.7949C61.1965 76.7793 57.7535 75.2332 53.916 71.659C49.5527 67.5949 45.1543 61.4371 41.5309 54.3199C40.716 52.7199 39.9537 51.0937 39.2453 49.4438C40.1246 47.8725 41.0552 46.3306 42.0356 44.8203C43.0132 43.3119 44.0394 41.8355 45.1125 40.3934C45.3859 40.3895 45.6613 40.3867 45.9387 40.386C47.3699 40.3813 48.9043 40.4211 50.5043 40.5051C58.4746 40.9231 65.8824 42.4387 71.3633 44.7727C76.1836 46.8258 78.9938 49.3445 78.8805 51.511C78.7844 53.35 76.5496 55.2512 72.7492 56.7266C72.3425 56.8903 72.0167 57.2078 71.8424 57.6101C71.6681 58.0124 71.6593 58.4672 71.8179 58.8759C71.9766 59.2847 72.2899 59.6144 72.69 59.7937C73.0901 59.9731 73.5448 59.9875 73.9555 59.834C80.559 57.2703 82.0887 53.9875 82.2094 51.6852C82.3149 49.6731 81.4125 47.7356 79.5277 45.9262V45.9266Z" fill="white"/>
<path d="M46.5602 50.4426C46.5602 52.4555 48.1906 54.0871 50.202 54.0871C52.2133 54.0871 53.8438 52.4555 53.8438 50.4426C53.8438 48.4293 52.2133 46.7977 50.202 46.7977C48.1906 46.7977 46.5602 48.4293 46.5602 50.4422" fill="white"/>
<defs>
<linearGradient id="paint0_linear" x1="50.0003" y1="4.01242" x2="50.0003" y2="99.9449" gradientUnits="userSpaceOnUse">
<stop stop-color="#FDFDFD"/>
<stop offset="1" stop-color="white"/>
</linearGradient>
<linearGradient id="paint1_linear" x1="49.9637" y1="8.30522" x2="49.9637" y2="96.0211" gradientUnits="userSpaceOnUse">
<stop/>
<stop offset="1"/>
</linearGradient>
</defs>
</svg>
