<svg width="100" height="100" viewBox="0 0 100 100" fill="none" xmlns="http://www.w3.org/2000/svg">
<path d="M90.9583 16.6667C92.9999 16.6667 94.2916 18.3334 93.7499 20.375L80.5833 79.625C80.1249 81.6667 78.1249 83.3333 76.0833 83.3333H9.0416C6.99993 83.3333 5.70826 81.6667 6.24993 79.625L19.4166 20.375C19.8749 18.3334 21.8749 16.6667 23.9166 16.6667H90.9583ZM65.9583 66.6667H49.2916C47.3749 66.6667 45.8333 68.25 45.8333 70.1667C45.8333 72.125 47.3749 73.7083 49.2916 73.7083H65.9583C67.9166 73.7083 69.4999 72.125 69.4999 70.1667C69.4999 68.25 67.9166 66.6667 65.9583 66.6667V66.6667ZM24.0833 67.8333C23.6896 68.1077 23.3544 68.4575 23.097 68.8624C22.8396 69.2674 22.6652 69.7194 22.5838 70.1922C22.5024 70.6651 22.5157 71.1494 22.6229 71.6171C22.7301 72.0847 22.929 72.5265 23.2083 72.9167C24.3749 74.6667 26.7083 75 28.3749 73.875C58.9999 52.3333 59.2083 52.0833 59.4166 51.9583C60.1666 51.2917 60.5416 50.375 60.5833 49.4583C60.6249 48.625 60.4166 47.9167 59.9166 47.125L39.4166 25.125C39.088 24.7662 38.6903 24.4774 38.2474 24.2761C37.8045 24.0747 37.3255 23.9649 36.8391 23.9533C36.3527 23.9416 35.8689 24.0283 35.4168 24.2082C34.9648 24.388 34.5537 24.6574 34.2083 25C32.7083 26.3334 32.6249 28.6667 33.9999 30.1667L51.2916 48.6667L24.0833 67.8333V67.8333Z" fill="white"/>
</svg>
