<svg width="84" height="68" viewBox="0 0 84 68" fill="none" xmlns="http://www.w3.org/2000/svg">
<path d="M75.3333 0.666656H8.66665C6.45651 0.666656 4.33689 1.54463 2.77409 3.10743C1.21129 4.67024 0.333313 6.78985 0.333313 8.99999V59C0.333313 61.2101 1.21129 63.3297 2.77409 64.8925C4.33689 66.4553 6.45651 67.3333 8.66665 67.3333H75.3333C77.5435 67.3333 79.6631 66.4553 81.2259 64.8925C82.7887 63.3297 83.6667 61.2101 83.6667 59V8.99999C83.6667 6.78985 82.7887 4.67024 81.2259 3.10743C79.6631 1.54463 77.5435 0.666656 75.3333 0.666656V0.666656ZM18.725 49.4458L12.8333 43.5542L22.3875 34L12.8333 24.4458L18.725 18.5542L34.1708 34L18.725 49.4458V49.4458ZM71.1667 50.6666H42V42.3333H71.1667V50.6666Z" fill="blue"/>
</svg>
