<svg width="100" height="100" viewBox="0 0 100 100" fill="none" xmlns="http://www.w3.org/2000/svg">
<path d="M81.25 3.125H18.75C10.1203 3.125 3.125 10.1203 3.125 18.75V81.25C3.125 89.8797 10.1203 96.875 18.75 96.875H81.25C89.8797 96.875 96.875 89.8797 96.875 81.25V18.75C96.875 10.1203 89.8797 3.125 81.25 3.125ZM36.2969 69.3203H28.6766L15.625 30.8125H24.2406L32.6203 60.0469L41.0766 30.8125H49.4563L36.2969 69.3203ZM80.2859 66.8281C77.5609 69.1516 73.7094 70.3125 68.7312 70.3125C63.65 70.3125 59.6547 69.1688 56.7438 66.8797C53.8328 64.5875 52.3766 61.4406 52.3766 57.4344H60.0766C60.3234 59.1922 60.8156 60.5078 61.5438 61.3781C62.8797 62.9656 65.1719 63.7547 68.4156 63.7547C70.3562 63.7547 71.9344 63.5453 73.1484 63.1281C75.4469 62.3281 76.5969 60.8391 76.5969 58.6609C76.5969 57.3906 76.0328 56.4062 74.9062 55.7094C73.7797 55.0281 71.9922 54.4281 69.5469 53.9062L65.3687 52.9938C61.2609 52.0859 58.4406 51.1016 56.9031 50.0391C54.3031 48.2641 53.0031 45.4844 53.0031 41.7047C53.0031 38.2562 54.2734 35.3922 56.8172 33.1094C59.3625 30.8281 63.1 29.6875 68.0328 29.6875C72.15 29.6875 75.6625 30.7625 78.5672 32.9141C81.475 35.0641 82.9984 38.1875 83.1422 42.2797H75.3906C75.2469 39.9641 74.2094 38.3172 72.275 37.3422C70.9875 36.6984 69.3844 36.3734 67.4719 36.3734C65.3422 36.3734 63.6422 36.7938 62.3688 37.6297C61.0984 38.4656 60.4641 39.6344 60.4641 41.1297C60.4641 42.5062 61.0891 43.5344 62.3438 44.2156C63.15 44.6672 64.8578 45.1984 67.4703 45.8078L74.2453 47.4031C77.2109 48.1 79.4391 49.0312 80.9187 50.1984C83.225 52.0078 84.375 54.6281 84.375 58.0609C84.375 61.5797 83.0141 64.5 80.2859 66.8281" fill="blue"/>
</svg>
